<svg xmlns="http://www.w3.org/2000/svg" viewBox="0 0 1562 813.32"><g id="Layer_2" data-name="Layer 2"><text transform="translate(612.97 220.92)" style="font-size:120px;font-family:mononoki-Regular, mononoki">Hello</text><text transform="translate(831.43 294.17)" style="font-size:50px;font-family:mononoki-Regular, mononoki">I am</text><text transform="translate(1124.59 437.24)" style="font-size:50px;font-family:mononoki-Regular, mononoki">aka cyberglot</text><text transform="translate(914.25 552.24)" style="font-size:36px;font-family:mononoki-Regular, mononoki">PLT designer &amp; Compiler engineer</text><text transform="translate(955.55 639.7)" style="font-size:24px;font-family:mononoki-Regular, mononoki">Interested in algebraic effects and handlers,<tspan x="-80.86" y="28.8">human aspects of proof assistants and PL semantics;</tspan></text><text transform="translate(1148.24 775.2)" style="font-size:48px;font-family:mononoki-Regular, mononoki">cyberglot.space</text><text transform="translate(969.54 365.68)" style="font-size:250px;fill:#f992ff;font-family:BodoniSvtyTwoSCITCTT-Book, "Bodoni 72 Smallcaps"">April</text><path d="M715.87,79.46l.65.21.65.22.66.22.65.22.66.23.66.23.66.23.67.23.66.24.67.25.67.24.67.25.67.25.67.26.67.26.67.26.68.27.67.27.67.27.68.28.67.28.68.28.67.29.68.29.67.3.67.3.67.3.67.31.67.31.67.31.67.32.67.32.66.33.67.32.66.34.66.33.66.35.65.34.66.35.65.35.65.36.64.36.65.37.64.37.64.38.63.37.63.39.63.38.62.39.63.4.61.4.62.4.61.41.6.42.6.42.6.42.59.43.59.43.58.43.29.22.29.23.29.22.28.22.29.23.28.22.28.23.28.23.28.23.28.23.27.23.28.24.27.23.28.24.26.23.27.24.27.24.27.24.26.24.27.25.26.24.26.25.25.24.26.25.26.25.25.25.25.26.25.25.25.25.25.26.24.26.24.26.24.26.24.26.24.26.24.26.23.27.23.27.23.27.23.27.23.27.22.27.22.27.22.28.22.27.22.28.21.28.21.28.21.28.21.29.2.28.21.29.2.29.2.29.2.28.19.3.19.29.19.29.19.3.19.3.18.3.18.3.18.3.17.3.18.31.17.3.17.31.16.31.16.31.17.31.15.32.16.31.15.32.15.32.15.31.15.32.14.33.14.32.14.32.13.33.13.33.13.33.12.33.13.33.12.33.11.34.12.34.11.33.11.34.1.34.11.34.1.35.09.34.1.35.06.24.06.25.06.24.06.25,0,.24.05.25,0,.24,0,.25,0,.24,0,.25,0,.24,0,.25,0,.25,0,.24,0,.24,0,.25,0,.24,0,.25,0,.24,0,.25,0,.24V130l0,.24v3.15l0,.48,0,.49,0,.48,0,.47,0,.48-.05.48-.06.47-.06.47-.07.47-.07.48-.07.46-.08.47-.09.47-.09.46-.09.47-.1.46-.1.46-.1.46-.11.46-.11.45-.11.46-.12.45-.12.45-.12.45-.12.44-.13.45-.13.44-.13.45-.13.43-.14.44-.13.44-.14.44-.27.85-.28.86-.28.84-.29.84-.28.83-.56,1.63-.23.66-.24.67-.24.66-.25.66-.26.66-.25.65-.27.65-.26.65-.27.64-.28.64-.28.64-.29.63-.29.63-.29.62-.31.62-.3.62-.31.62-.31.6-.32.61-.33.6-.33.6-.33.59-.34.59-.34.59-.35.58-.35.58-.35.57-.36.57-.37.56-.37.56-.37.55-.38.55-.39.55-.38.53-.4.54-.39.53-.4.52-.41.52-.2.26-.21.26-.21.25-.21.26-.2.25-.22.25-.21.25-.21.25-.21.25-.22.24-.21.24-.22.25-.22.24-.22.24-.22.24-.22.24-.22.23-.23.24-.22.23-.23.23-.22.23-.23.23-.23.23-.23.22-.23.23-.24.22-.23.22-.23.22-.24.22-.24.22-.23.21-.24.21-.24.22-.24.21-.25.21-.24.2-.24.21-.25.2-.25.21-.24.2-.25.2-.25.19-.26.2-.25.19-.25.2-.25.19-.26.18-.26.19-.25.19-.26.18-.26.19-.26.18-.26.18-.27.17-.26.18-.27.17-.26.17-.27.17-.27.17-.27.17-.27.17-.27.16-.27.16-.27.16-.28.16-.27.15-.28.15L741,191l-.27.15-.28.14-.28.15-.28.14-.29.15-.28.14L739,192l-.28.13-.29.14-.28.13-.29.13-.29.13-.29.12-.29.13-.29.12-.3.12-.29.12-.3.12-.3.11-.29.11-.3.12-.3.1-.3.11-.3.1-.3.11-.31.09-.3.1-.3.1-.31.09-.3.09-.31.09-.31.09-.31.08-.31.09-.31.08-.31.08-.32.07-.31.08-.32.07-.31.07-.32.06-.31.07-.32.06-.32.06-.32.06-.32.06-.32.05-.32,0-.33.05-.32,0-.33,0-.32,0-.33,0-.32,0-.33,0-.33,0-.33,0-.33,0-.33,0-.33,0-.34,0-.33,0-.33,0h-4.07l-.35,0-.34,0-.35,0-.34,0-.35,0-.35,0-.34,0-.35,0-.35,0-.35,0-.35,0-.35,0-.36,0-.35-.05-.35,0-.35-.05-.36-.06-.35-.06-.36-.06-.33-.06h0l-.36-.1-.34-.11-.35-.11-.36-.11-.35-.11-.35-.12-.3-.1,0,0-.32-.24-.32-.24-.33-.24-.32-.24-.32-.23-.32-.24-.32-.23-.32-.22-.32-.23-.32-.22-1-1.71,1.8-.88.38,0,.37,0,.37,0,.37,0,.37,0,.37-.05.37-.07.36-.07.37-.07.36-.09h0l.29,0,.33,0,.32,0,.33,0,.33,0,.32,0,.33,0h0l.29.05.32.06.31,0,.32.05.31,0,.31.05.31,0,.31,0,.31,0,.3,0,.31,0,.31,0,.3,0,.31,0,.3,0,.31,0,.3,0,.3,0h.3l.3,0H721l.29,0h.29l.29,0,.28,0,.29,0,.29,0,.28,0,.29,0,.28,0,.28,0,.28,0,.28,0,.28,0,.28,0,.28,0,.28-.05.28,0,.27,0,.28-.05.27-.05.28,0,.27-.06.27-.05.27-.06.27-.06.27-.07.27-.06.27-.07.27-.07.26-.06.27-.08.26-.07.27-.08.26-.07.26-.08.27-.09.26-.08.26-.08.26-.09.26-.09.26-.09.25-.09.26-.1.25-.09.26-.1.25-.1.26-.1.25-.1.25-.11.25-.1.25-.11.25-.11.25-.11.25-.12.25-.11.24-.12.25-.12.24-.12.25-.12L737,186l.24-.13.24-.13.25-.13.24-.13.24-.13.23-.13.24-.14.24-.14.24-.14.23-.14.24-.14.23-.15.23-.14.23-.15.24-.15.23-.15.23-.15.23-.15.23-.16.22-.16L742,183l.23-.16.22-.17.22-.16.23-.16.22-.17.22-.17.23-.17.22-.17.22-.17.21-.18.22-.17.22-.18.21-.18.22-.18.21-.19.22-.18.21-.18.22-.19.21-.19.21-.19.21-.19.2-.19.21-.2.21-.19.21-.2.2-.2.21-.2.2-.2.2-.2.2-.2.21-.21.2-.21.2-.21.2-.21.19-.21.2-.21.2-.22.19-.21.2-.22.19-.22.19-.21.19-.23.19-.22.19-.22.19-.23.19-.22.19-.23.18-.23.19-.23.18-.23.18-.23.37-.47.36-.48.36-.48.35-.49.35-.49.34-.49.35-.5.33-.5.34-.51.33-.52.32-.51.32-.53.32-.53.32-.53.31-.53.31-.55.3-.54.3-.55.29-.55.29-.56.29-.56.28-.57.28-.57.27-.57.27-.58.27-.58.26-.59.26-.58.25-.6.25-.59.24-.6.24-.6.24-.61.23-.61.23-.61.22-.62.22-.61.22-.63.54-1.61.28-.82.27-.81.27-.82.26-.81.26-.83.13-.41.12-.41.13-.41.12-.41.12-.41.11-.41.12-.41.11-.41.11-.41.11-.42.1-.41.1-.41.1-.41.09-.41L767,140l.09-.41.09-.4.08-.41.07-.41.07-.4.07-.41.07-.4.06-.41,0-.4.05-.4,0-.4,0-.4,0-.4,0-.4,0-.4,0-.39,0-.4v-2.53l0-.19v-.19l0-.19v-.19l0-.19,0-.19,0-.19,0-.19,0-.19,0-.19,0-.19,0-.19,0-.18,0-.19,0-.19,0-.19,0-.18,0-.19-.05-.18,0-.19,0-.18-.05-.19,0-.18-.08-.29-.08-.29-.08-.28-.09-.28-.09-.28-.09-.29-.09-.28-.1-.27-.1-.28-.1-.28-.1-.27-.11-.28-.1-.27-.12-.28-.11-.27-.11-.27-.12-.27-.12-.27-.13-.27-.12-.26-.13-.27-.13-.26-.13-.27-.13-.26-.14-.26-.14-.26-.14-.26-.15-.26-.14-.26-.15-.26-.15-.25-.15-.26-.16-.25-.15-.26-.16-.25-.16-.25-.17-.25-.16-.25-.17-.25-.17-.25-.17-.25-.18-.25-.17-.24-.18-.24-.18-.25-.18-.24L761,114l-.18-.24-.19-.24-.19-.24-.19-.24-.2-.24-.19-.24-.2-.23-.2-.24-.2-.23-.21-.23-.2-.23-.21-.24-.21-.23-.21-.23-.22-.22-.21-.23-.22-.23-.22-.22-.22-.23-.22-.22-.23-.23-.22-.22-.23-.22-.23-.22-.23-.22-.24-.22-.23-.22-.24-.22-.24-.21-.24-.21-.24-.22-.24-.21-.25-.22-.24-.21-.25-.21-.25-.21-.25-.21-.25-.2-.26-.21-.25-.21-.26-.2-.26-.21-.26-.2-.26-.21-.26-.2-.27-.2-.26-.2-.53-.39-.55-.4-.54-.39-.55-.38-.56-.39-.56-.38-.56-.37-.57-.38-.58-.37-.58-.36-.58-.36-.59-.36-.59-.36-.59-.35-.6-.34-.6-.35-.61-.34-.61-.33-.61-.34-.61-.33L738,96l-.62-.32-.62-.32-.63-.31-.63-.32-.63-.31-.63-.3-.63-.31L733,93.5l-.63-.3-.64-.29-.65-.29-.64-.29-.64-.28-.64-.28-.65-.27-.64-.27-.65-.27-.65-.27-.64-.26-.65-.26-.65-.26-.65-.25-.64-.25-.65-.25-.65-.24-.64-.24-.65-.24-.64-.23-.64-.23-.65-.23-.64-.22-.64-.22-.64-.22-.63-.22-.64-.21-.63-.21-.63-.2-.63-.21-.63-.2-.62-.19-.62-.2-.62-.19-.62-.19-.61-.19-.61-.18-.61-.18-.6-.17-.6-.18L707,84l-.6-.17-.59-.16-.58-.17-1.16-.31-1.14-.31-1.12-.3-1.1-.28-.77-.2-.77-.2-.78-.19-.77-.19-.77-.18-.78-.19-.77-.18-.78-.17-.77-.18-.78-.17-.78-.17-.78-.17-.77-.16-.78-.16-.78-.16-.78-.16-.78-.15-.78-.16L686,79l-.79-.15-.78-.15-.78-.14-.79-.14-.78-.13-.78-.14-.79-.13-.78-.13-.79-.13-.79-.12-.78-.12-.79-.12-.79-.12-.79-.12-.78-.11L673.4,77l-.79-.11-.79-.1-.79-.11-.79-.1-.79-.1-.79-.1-.8-.09-.79-.09-.79-.09-.79-.09-.8-.09-.79-.08-.79-.08-.8-.08-.79-.08-.8-.08-.79-.07-.8-.07-.79-.07-.8-.07-.79-.07-.8-.06-.8-.06-.79-.06-.8-.06-.8-.05-.79,0-.8-.06-.8,0-.8,0-.8,0-.8,0-.8,0-.79,0-.8,0-.8,0-.8,0-.8,0-.8,0-.8,0-.8,0-.8,0-.8,0-.8,0-.8,0-.81,0-.8,0h-.8l-.8,0h-1.6l-1.61,0-1.6,0h-6.41l-1.61,0-1.6,0-1.6,0-1.61,0-1.6,0-1.6,0-1.6,0-1.61,0-1.6.06-1.6.06-1.6.07-1.6.07-1.6.07-1.6.08-1.6.09-1.51.08-1.53.08-1.54.1-1.54.09-.77,0-.78,0-.77.06-.78,0-.7,0h-.07l-.78.06-.78.07-.78.07-.78.07-.78.07-.78.08-.78.08-.77.08-.78.08-.78.09-.78.1-.78.09-.77.1-.78.1-.77.11-.78.11-.77.12-.77.11-.77.13-.76.12-.77.14-.76.13-.76.14-.76.15-.76.15-.75.16-.75.16-.75.16-.74.17-.75.18-.37.09-.37.09-.36.1-.37.09-.37.1-.36.1-.37.1-.36.1-.37.1-.36.1-.36.11-.36.1-.36.11-.35.11-.36.11-.36.11-.35.12-.36.11-.35.12-.35.12-.35.12-.35.12-.35.13-.35.12-.34.13-.35.13-.34.13-.34.13-.35.14-.34.13-.33.14-.34.14-.34.14-.33.14-.34.15-.33.14-.33.15-.33.15-.33.15-.32.15-.33.16-.32.16-.34.17-.34.17-.34.17-.33.18-.34.18-.33.18-.33.19-.33.19-.33.19-.33.2-.32.19-.33.21-.32.2-.32.2-.32.21-.32.21-.32.22-.31.22-.31.21-.32.23-.31.22-.3.23-.31.23-.31.23-.3.24-.3.24-.3.24-.3.24-.3.25-.29.24-.3.25-.29.26-.17.15L541,91l-.28.26-.29.26-.29.26-.28.27-.28.26-.28.27-.28.28-.27.27-.28.27-.27.28-.27.28-.27.29-.26.28-.27.29-.26.29-.26.29-.26.29-.26.3-.25.29-.25.3-.25.3-.25.31-.25.3-.25.31-.24.31-.24.31-.24.31-.23.31-.24.32-.23.32-.23.32-.23.32-.23.32-.22.33-.22.32-.22.33-.22.33-.22.33-.21.33-.21.34-.21.33-.21.34-.2.34-.2.34-.2.34-.2.35-.2.34-.19.35-.19.34-.19.35-.19.35-.18.35-.18.35-.18.36-.18.35-.17.36-.17.35-.17.36-.17.36-.17.36-.16.36-.16.36-.16.37-.15.36-.15.37-.16.36-.14.37-.15.37-.14.37-.14.37-.14.37-.13.37-.14.37-.12.34v0l-.13.37-.13.38-.12.37-.12.38-.12.37-.12.38-.11.37-.11.38-.11.38-.11.38-.11.38-.1.37-.09.38-.1.38-.09.39-.09.38-.09.38-.09.38-.08.38-.08.38L523,123l-.08.39-.07.38-.07.38-.07.39-.06.38-.06.38-.06.39,0,.38-.05.38,0,.39-.05.38,0,.38,0,.39,0,.38,0,.38,0,.39,0,.38,0,.38,0,.39,0,.38,0,.38v3.8l0,.38v.38l0,.38,0,.38,0,.37,0,.38,0,.37,0,.38,0,.37,0,.38,0,.37,0,.37.05.37,0,.37.05.37.06.37,0,.37.06.37.07.37.07.36.07.37.07.37.08.36.08.36.08.36.08.36.09.37.1.35.09.36.1.36.1.36.11.35.11.36.11.35.11.35.12.35.12.35.13.35.12.35.13.35.14.34.14.35.14.34.14.34.15.34.15.34.15.34.16.34.16.33.16.34.17.33.17.33.18.33.18.33.18.33.18.33.19.32.19.33.19.32.2.32.2.32.21.32.21.31.21.32.22.31.22.31.22.31.23.31.23.31.23.3.24.31.24.3.24.3.25.3.25.29.26.3.26.29.26.29.27.3.27.28.27.29.28.28.28.29.29.28.29.28.3.28.29.27.31.28.3.27.31.27.32.27.31.26.32.27.33.26.33.26.34.26.33.26.17.12.07,0,.1.07.16.12.17.12.17.12.17.12.17.11.17.11.16.11.17.11.17.11.17.11.17.1.18.11.17.1.17.1.17.1.18.09.17.1.17.09.18.09.17.09.17.09.18.09.18.09.17.08.18.09.18.08.17.08.18.08.18.08.18.07.18.08.18.07.18.08.18.07.18.07.18.06.37.14.37.13.37.12.37.12.37.11.38.11.38.1.37.1.39.09.38.09.39.09.38.08.39.07.39.07.4.07.39.06.4.06.4.05.4,0,.4.05.41,0,.41,0,.4,0,.42,0,.41,0,.41,0,.42,0,.42,0h3l.43,0h.43l.43,0,.44,0,.43,0,.44,0,.44,0,.44,0,.44,0,.44,0,.45,0,.44,0,.45-.05.44,0,.45-.05.45,0,.44-.06.45-.06.46-.05.44-.06.91-.13.91-.13.91-.14.91-.14.92-.15.92-.15.91-.15.93-.16.92-.15,1.84-.32,1.85-.32.92-.16.92-.15.93-.15.92-.15.92-.15.92-.13.58-.09.34-.05.91-.12.47-.06.45-.06.46-.06.46-.05.46-.05.45,0,.46-.05.46,0,.45,0,.45,0,.46,0,.45,0,.64-.05.64,0,.63,0,.64,0,.63,0,.64,0,.63,0,.63,0,.63,0,.63,0,.63,0,.63,0,.63,0,.62,0,.63,0h.62l.63,0h8.65l.62,0h.61l.61,0,.61,0,.61,0,.61,0,.61,0,.61,0,.61,0,.61,0,.6,0,.61,0,.61,0,.6,0,.61,0,.6,0,.6,0,.61.05.6,0,.61.05.6,0,.6.06.6.05.6.05.61.06.6.06.6.06.6.06.6.06.6.07.59.07.6.06.6.08.6.07.6.07.6.07.6.08,1,.14.16,0,1.19.17,1.2.17,1.19.19,1.19.19,1.19.19,1.19.2,1.19.21,1.19.21,1.19.22,1.19.22,1.19.23,1.19.23,1.19.25,1.2.24,1.19.26,1.19.25,1.19.26,1.2.27,1.19.28,1.2.28,1.2.28,1.19.29,1.2.3,1.21.29,1.2.31,1.2.31.62.16.49.54,1,1,1.07.84.47.78-.78.47-1.34.23-1.37.41-.68.25-.62-.14-1.2-.27-1.19-.26-1.19-.26-1.2-.25-1.18-.25-1.19-.24-1.18-.24-1.19-.23-1.18-.23-1.18-.22-1.18-.21-1.18-.21-1.17-.21-1.18-.19-1.17-.2-1.17-.18-1.18-.18-1.17-.18-1.17-.17-1.17-.16-1.17-.16-1.17-.15-1.17-.15-1.16-.13-1.17-.14-1.17-.12-.16,0-1-.11-.58-.06-.59-.06-.58,0-.59-.06-.58-.05-.59,0-.58-.05-.58-.05-.59,0-.58-.05-.59,0-.59,0-.58,0-.59,0-.58,0-.59,0-.59,0-.58,0-.59,0-.59,0-.59,0-.58,0-.59,0-.59,0-.59,0-.59,0-.59,0h-1.77l-.59,0H607.3l-.6,0-.6,0-.6,0-.6,0-.6,0-.61,0-.6,0-.6,0-.6,0-.61,0-.6,0-.61,0-.61,0-.6,0-.61,0-.61,0-.61,0-.61.05-.61,0-.62.05-.61.06-.61.05-.62.06-.61.06-.42.05-.41,0-.41.05-.42,0-.42.05-.42.06-.42.05-.43.07-.43.06-.42.06-.43.07-.43.07-.87.14-.32,0-.56.1-.88.15-.88.16-.89.16-.9.17-.9.17-.91.17-1.82.36-1.84.36-.93.18-.93.18-.93.18-.94.17-.94.17-.94.17-.95.17-1,.15-.95.16L568,179l-.47.07-.48.07-.48.07-.48.07-.48.07-.47.06-.48.06-.48.06-.49.05-.47,0-.49.05-.48,0-.48.05-.48,0-.49,0-.48,0-.48,0-.49,0-.48,0-.48,0-.49,0h-.48l-.49,0H554l-.48,0-.49,0-.49,0-.48,0-.49,0-.48-.05-.49,0-.48-.06-.49-.06-.48-.06-.49-.07-.48-.08-.48-.08-.49-.09-.48-.09-.48-.1-.48-.11-.48-.11-.48-.12-.48-.12-.48-.14-.48-.14-.48-.15-.48-.15-.46-.16-.25-.08-.24-.09-.23-.08-.24-.09-.24-.09-.23-.09-.24-.1-.23-.1-.24-.09-.23-.1-.23-.1-.24-.11-.23-.1-.24-.11-.23-.11-.23-.11-.23-.12-.23-.11-.23-.12-.23-.12-.24-.12-.22-.13-.23-.12-.23-.13-.23-.13-.23-.13-.22-.13-.23-.14-.23-.14-.22-.14-.23-.14-.22-.15-.23-.14-.22-.15-.22-.15-.22-.16-.13-.09-.09-.06-.23-.16-.4-.3-.4-.3-.4-.3-.4-.3-.39-.31-.38-.31-.38-.32-.38-.32-.37-.31-.37-.33-.36-.32-.36-.33-.36-.33-.35-.33-.34-.34-.35-.34-.34-.34-.33-.34-.33-.35-.32-.34-.33-.35-.31-.36-.31-.35-.31-.36-.31-.36-.29-.36-.3-.37-.29-.36-.29-.37-.28-.37-.28-.37-.28-.38-.26-.38-.27-.38-.26-.38-.26-.38-.25-.39-.25-.38-.25-.39-.24-.39-.23-.39-.24-.4-.22-.39-.23-.4-.22-.4-.21-.4-.21-.4-.21-.41-.21-.4-.19-.41-.2-.41-.19-.41-.19-.41-.18-.41-.18-.42L517,153l-.17-.41-.17-.42-.16-.42-.16-.42-.16-.43-.15-.42-.14-.42-.15-.43-.14-.42-.13-.43-.13-.43-.13-.43-.12-.43-.12-.43-.12-.44-.11-.43-.11-.43-.1-.44-.1-.44-.1-.43-.09-.44-.09-.44-.09-.44-.08-.44-.08-.44-.07-.44-.07-.44-.07-.44-.06-.45-.06-.44,0-.44,0-.45-.05-.44,0-.45,0-.44,0-.45,0-.45,0-.44,0-.45,0-.4v-.5l0-.44v-3.14l0-.45,0-.45,0-.45,0-.45,0-.44,0-.45,0-.45,0-.45,0-.45,0-.44,0-.45.06-.45.05-.44.06-.45.06-.45.07-.44.07-.45.07-.44L514,123l.07-.44.09-.44.08-.45.09-.44.09-.44.09-.44.1-.44.1-.44.1-.45.11-.43.11-.44.11-.44.12-.44.12-.43.12-.44.12-.43.13-.44.13-.43.13-.43.14-.44.14-.43.14-.43.15-.43.15-.43.15-.42v-.05l.14-.38.16-.42.16-.43.17-.42.16-.42.17-.42.18-.42.17-.42.18-.42.18-.41.19-.42.18-.41.19-.41.2-.41.19-.41.2-.41.2-.41.2-.4.21-.41.21-.4.21-.4.21-.4.22-.4.22-.4.22-.39.22-.4.23-.39.23-.39.23-.39.24-.39.23-.38.24-.39.25-.38.24-.38L524,98l.25-.38.25-.38.26-.37.25-.37.26-.37.27-.37.26-.37.27-.36.27-.37.27-.36.27-.36.28-.36.28-.35.28-.35.29-.35.29-.35.29-.35.29-.35.29-.34.3-.34.3-.34.3-.33.3-.34.31-.33.3-.33.31-.33.32-.32.31-.32.32-.32.32-.32.32-.32.32-.31.33-.31.33-.31.33-.3.33-.3.34-.3.34-.3.34-.3.13-.11.21-.18.34-.29.35-.29.35-.28.35-.28.35-.28.35-.27.36-.28.36-.27.36-.26.37-.27.36-.26.37-.26.37-.25.37-.26.37-.25.38-.24.38-.25.38-.24.38-.23.38-.24.39-.23.39-.22.38-.23.4-.22.39-.22.39-.21.4-.21.4-.21.4-.21.41-.2.4-.19.41-.2.37-.17.37-.17.38-.17.38-.17.37-.17.38-.16.38-.16.38-.16.38-.15.38-.15.38-.16.39-.14.38-.15.39-.15.38-.14.39-.14.39-.14.38-.13.39-.14.39-.13.39-.13.39-.13.4-.12.39-.13.39-.12.4-.12.39-.12.4-.12.39-.11.4-.11.4-.11.39-.11.4-.11.4-.11.4-.1.4-.1.4-.1.4-.1.4-.1.4-.09.4-.1.41-.09.8-.18.8-.17.81-.17.81-.16.81-.15.81-.15.81-.15.82-.14.81-.13.81-.13.82-.12.81-.12.82-.11.81-.11.82-.1.81-.1.82-.1.81-.09.81-.09.82-.08.81-.08.81-.08.81-.08.81-.07.8-.06.81-.07.8-.06.81-.06.8,0,.8-.06h.07l.73,0,.79-.06.79,0,.79,0,.79,0,1.57-.09,1.56-.09,1.54-.08,1.54-.07,1.61-.08,1.62-.07,1.62-.07,1.62-.06,1.62-.06,1.62-.06,1.63,0,1.62,0,1.63,0,1.62,0,1.63,0,1.63,0,1.62,0,1.63,0H628l1.63,0,1.63,0,1.63,0,.82,0,.82,0h.81l.82,0,.81,0,.82,0,.82,0,.81,0,.82,0,.81,0,.82,0,.81,0,.82,0,.81,0,.82,0,.82,0,.81,0,.82,0,.81,0,.82,0,.81,0,.82,0,.81.06.82,0,.81.06.82.06.81.07.82.06.81.07.81.07.82.07.81.07.81.08.82.07.81.08.81.08.82.09.81.08.81.09.81.09.82.09.81.09.81.1.81.1.81.1.81.1.81.11.81.11.81.11.81.11.81.11.81.12.81.12.8.12.81.13.81.12.81.13.81.13.8.14.81.14.8.13.81.14.8.15.81.15.8.15.81.15.8.15.81.16.8.16.8.16.8.17.8.16.8.17.8.18.8.17.8.18.8.18.8.19.8.18.8.19.8.19.79.2.8.2.79.2.8.2.79.21,1.13.3,1.15.31,1.18.32,1.18.33.61.17.6.17.61.18.61.18.62.18.62.19.63.19.63.19.63.19.63.2.64.2.64.2.65.21Z" transform="translate(-171.2 -66.68)" style="fill:#f992ff;fill-rule:evenodd"/><path d="M666.47,178.3l.33.21.37.21.4.22.43.22.47.22.5.24.37.17v.09l0,.31,0,.3,0,.31,0,.31,0,.3,0,.31,0,.3v2.41l0,.29v.3l0,.29,0,.3,0,.29,0,.29,0,.29,0,.3,0,.29,0,.33,0,.33-.05.33,0,.32-.06.32,0,.32-.07.32-.06.31-.07.31-.07.31-.07.3-.08.3-.08.3-.08.29-.08.3-.09.29-.09.29-.09.28-.1.28-.1.28-.1.28-.11.27-.11.27-.11.27-.11.27-.12.26-.12.26-.12.25-.12.26-.13.25-.13.25-.14.24-.13.24-.14.24L666,197l-.15.23-.15.24-.13.2,0,0-.16.22-.16.22-.16.21-.17.21-.17.21-.17.21-.17.2-.18.19-.18.2-.18.19-.18.19-.19.19-.18.18-.19.18-.19.17-.19.18-.2.16-.2.17-.19.16-.2.16-.21.16-.2.15-.2.15-.21.15-.21.14-.21.15-.21.14-.21.13-.21.13-.22.13-.21.13-.22.12-.22.12-.22.12-.22.11-.22.11-.22.11-.23.11-.23.1-.22.1-.23.1-.22.1-.23.09-.23.09-.23.09-.23.08-.23.09-.24.08-.23.08-.23.07-.24.08-.23.07-.24.07-.24.06-.23.07-.24.06-.24.06-.24.06-.24.06-.24.05-.23.06-.25,0-.24.05-.24,0-.24.05-.25,0-.48.09-.49.07-.49.07-.49.06-.49.06-.49.05-.5.05-.49,0-.5,0-.5,0-.5,0-.5,0-.5,0h-5l-.51,0-.5,0-.51,0-1,0-1-.05-1-.06-1,0-1-.06-2-.12-1-.06-1-.05-1,0-.47,0h-.07l-.4,0-.47,0-.46,0-.47,0H622l-.42,0-.41,0-.41,0-.41,0-.4,0-.39,0-.39,0-.39,0-.37,0-.37.06-.38.06-.17,0-.18,0-.18,0-.17,0-.18,0-.17,0-.17,0-.17,0-.25.06-.24.06-.24.08-.24.07-.25.08-.23.08-.25.09-.23.09-.24.09-.24.1-.23.11-.24.1-.23.11-.23.12-.23.12-.23.12-.23.13-.23.13-.22.13-.23.14-.22.14-.22.15-.22.14-.22.16-.22.15-.22.16-.21.16-.21.16-.22.17-.21.17-.2.18-.21.17-.21.18-.2.18-.2.19-.2.19-.2.19-.19.19-.2.2-.19.2-.19.2-.18.2-.19.2-.18.21-.18.21-.18.21-.18.21-.17.22-.18.21-.17.22-.16.22-.17.23-.16.22-.16.22-.16.23-.15.23-.16.23-.15.23-.15.23-.14.23-.14.23-.14.24-.14.23-.14.24-.16.29-.15.28-.15.29-.15.29-.14.29-.14.29-.13.29-.13.29-.12.29-.07.16-.06.13-.14.29-.06.14-.06.14-.07.15-.05.12.32-.22.33-.24.33-.24L603,220l.32-.24.32-.25.32-.25.31-.26.32-.25.31-.26.34-.28.31-.23.65-.5.65-.5.66-.5.34-.25.33-.25.35-.26.34-.25.34-.25.36-.25.35-.25.36-.24.36-.24L611,214l.37-.24.38-.24.39-.23.39-.23.39-.22.21-.12.2-.11.21-.11.2-.1.21-.11.21-.1.22-.11.21-.1.22-.1.21-.1.23-.09.22-.1.22-.09.23-.1.23-.09.23-.08.23-.09.23-.09.24-.08.24-.08.24-.08.25-.08.24-.07.25-.07.25-.07.25-.07.26-.07.25-.06.26-.06.27-.06.26-.06.27,0,.27-.05.27,0,.27-.05.28,0,.28-.05.28,0,.29,0,.28,0,.29,0,.29,0,.33,0,.32,0,.33,0,.31,0h0l.33,0,.33,0,.33,0h4.32l.68,0,.67,0,.68,0,.68,0,.69,0,.68,0,.69.05.69.06.69.06.69.06.69.07.7.07h0l.65.07.69.09.7.08.7.09.7.1.7.09.71.1.7.1.71.1.7.11,1.41.21,1.32.21h.1l1.41.25,1.41.25,2.83.49,1.41.25,1.4.24,1.41.24.7.12.7.11.7.11.7.11.7.1.7.11.7.1.69.1.69.09.69.09.59.08h.1l.69.09.69.09.68.08.68.07.68.07.68.07.67.06.67.06.68,0,.66.05.67,0,.66,0,.66,0,.66,0h4.83l.31,0,.32,0,.31,0,.31,0,.31,0,.31,0,.31,0,.31,0,.31,0,.3,0,.31,0,.31,0,.3,0,.3,0,.3,0,.3,0,.3-.05.3-.05.3,0,.29-.05h0l.25-.05.29,0,.3-.06.29-.06.29-.07.29-.06.29-.07.29-.07.29-.07.28-.08.29-.08.28-.08.28-.08.28-.09.28-.08.29-.09.27-.1.28-.09.28-.1.27-.1.28-.1.27-.11.27-.1.27-.11.27-.12.27-.11.27-.12.26-.12.27-.13.26-.12.27-.13.26-.14.26-.13.26-.14.26-.14.26-.14.25-.15.26-.15.25-.15.26-.16.25-.16.25-.16.25-.17.25-.17.25-.17.25-.17.24-.18.25-.18.24-.19.25-.19.24-.19.24-.19.24-.2.24-.2.24-.21.24-.21.23-.21.24-.22.23-.22.24-.22.23-.23L702,206l.23-.24.23-.23.22-.25L703,205l.23-.26.22-.25.22-.26.22-.26.23-.27.13-.16.13-.16.13-.17.13-.16.12-.17.12-.16.26-.34.24-.34.24-.34.23-.35L706,201l.23-.35.23-.36.22-.36.21-.36.22-.37.21-.37.2-.37.21-.38.2-.38.2-.38.19-.39.2-.39.18-.39.19-.39.19-.4.18-.39v0l.26-.35.26-.37.26-.37.26-.37.26-.38.25-.38.25-.38.25-.39,2.75-1.24,1.12,2.8-.09.46-.09.47-.1.46-.09.47-.1.46-.1.48-.1.46-.1.46v0l-.19.43-.2.44-.19.43-.2.43-.21.44-.2.43-.21.43-.22.43-.22.43-.23.43-.22.42-.24.43-.24.42-.24.42-.25.42-.26.42-.26.42-.27.41-.28.41-.28.41-.28.41-.15.2-.15.21-.15.19L709,207l-.15.2-.16.2-.25.31-.25.32-.26.31-.25.3-.26.3-.27.3-.26.29-.26.29-.27.29-.27.28-.27.28-.27.27-.28.27-.27.27-.28.26-.28.26-.28.25-.28.25-.29.25-.28.24-.29.24-.29.23-.29.23-.3.23-.29.22-.29.22-.3.22-.3.21-.3.21-.3.2-.31.2-.3.2-.31.19-.3.19-.31.19-.31.18-.31.18-.32.17-.31.18-.32.16-.31.17-.32.16-.32.16-.32.15-.32.15-.32.15-.32.14-.33.15-.32.13-.33.14-.33.13-.33.13-.33.12-.33.12-.33.12-.33.12-.33.11-.34.11-.33.1-.34.11-.33.1-.34.1-.34.09-.34.09-.33.09-.34.08-.35.09-.34.08-.34.07-.34.08-.29.06H687l-.34.07-.35.06-.34.07-.35,0-.34.06-.35.06-.35.05-.35,0-.34.05-.35,0-.35,0-.35,0-.35,0-.36,0-.35,0-.35,0-.35,0-.35,0-.36,0-.35,0-.35,0h-.36l-.35,0h-.36l-.35,0h-3.57l-.72,0-.72,0-.71,0-.72,0-.72,0-.72-.05-.72-.05-.73,0-.72-.07-.72-.06-.72-.07-.73-.08-.72-.08-.72-.08h-.11l-.61-.08-.73-.09-.72-.1-.72-.1-.72-.1-.72-.11-.72-.11-.72-.11-.72-.11-.72-.11-.72-.12-1.43-.24-1.43-.24-1.43-.24-2.83-.49-1.4-.25-1.41-.24h-.09l-1.29-.24-1.39-.26-.68-.12-.69-.12-.68-.12-.68-.12-.67-.11-.68-.12-.67-.1-.67-.11-.66-.1-.62-.09h0l-.66-.1-.66-.09-.65-.1-.65-.08-.64-.08-.65-.08-.64-.07-.63-.07-.63-.06-.63-.06-.62,0-.62-.05-.62,0-.61,0-.3,0h-4.89l-.23,0h-.23l-.22,0-.22,0-.22,0-.22,0-.21,0-.21,0-.21,0-.21,0-.2,0-.21,0-.2,0-.2,0-.2,0-.2,0-.19,0-.19,0-.2.05-.19,0-.19.05-.18.06-.19.05-.18.06-.19.06-.18.06-.18.07-.18.06-.18.07-.18.06-.17.07-.18.07-.17.07-.18.08-.17.07-.17.08-.17.08-.18.08-.17.08-.16.08-.34.17-.34.17-.33.18-.34.19-.33.18-.33.2-.33.2-.33.2-.33.2-.33.21-.33.22-.33.22-.33.22-.33.22-.33.23-.67.46-.68.46-.69.48-.33.22-.39.24-.37.22-.37.22-.37.22-.38.22-.38.22-.39.22-.39.22-.4.21-.41.22-.4.21-.42.2-.41.2-.43.2-.21.1-.22.1-.22.09-.22.1-.22.09-.22.09-.23.09-.22.09-.23.09-.23.08-.23.09-.24.08-.23.08-.26.09-.13,0-.16.05-.19,0-.21,0h-.25l-.27,0-.29-.08-.12-.06-.18-.08-.28-.19-.24-.23-.18-.24-.13-.24-.08-.22-.06-.2,0-.19v-.55l0-.13,0-.19,0-.19,0-.19,0-.17,0-.18,0-.17,0-.17.05-.17.1-.33.19-.64.08-.28,0-.13,0-.13v0l0-.12,0-.11,0,.05,0-.12,0,.06,0-.09,0-.18,0-.19,0-.2,0-.2,0-.19,0-.2,0-.19,0-.19,0-.2.05-.19.1-.38,0-.17.07-.2.13-.37.15-.36.14-.36.16-.35.15-.36.17-.35.16-.35.17-.34.17-.34.15-.28.15-.28.15-.28.16-.28.16-.28.16-.28.17-.27.17-.28.17-.27.17-.27.18-.28.18-.27.19-.26.18-.27.19-.27.2-.26.19-.26.2-.27.21-.25.2-.26.21-.26.21-.25.21-.25.22-.25.22-.25.23-.24.22-.24.23-.24.24-.24.23-.24.24-.23.24-.23.24-.22.25-.23.25-.22.25-.22.26-.21.26-.21.26-.21.26-.21.27-.2.27-.2.28-.19.27-.19L609,204l.29-.18.28-.18.29-.18.29-.17.29-.17.3-.16.3-.16.3-.15.31-.15.31-.15.31-.14.31-.14.32-.13.32-.12.32-.12.33-.12.32-.11.33-.1.33-.1.22-.06.22-.06.21-.06.22,0,.22-.06.22-.05.22,0,.23-.05.44-.09.45-.09.45-.08.45-.07.46-.07.46-.06.46-.06.47-.06.46,0,.47,0,.47,0,.47,0,.48,0,.48,0,.48,0,.48,0,.48,0H625l.49,0h3.43l1,0h1l1,0,2,0,1,0,1,0h1l1,0h4.76l.47,0,.45,0,.46,0,.45,0,.45,0,.45,0,.44,0,.44,0,.43-.05.43,0,.42-.05.42-.06.42-.06.4-.06.41-.07.4-.08.39-.07.4-.08.18-.05.19,0,.19,0L651,199l.19,0,.18-.05.18,0,.19-.05.18-.05.17,0,.18-.06.18-.05.17-.06.17-.06.17-.06.17-.06.17-.06.16-.06.17-.07.16-.07L654,198l.16-.07.16-.07.15-.07.15-.07.16-.07.15-.08.14-.08.15-.07.15-.08.14-.08.14-.08.14-.09.14-.08L656,197l.14-.08.13-.09.13-.09.14-.09.12-.09.13-.1.13-.09.12-.1.12-.1.12-.09.12-.11.12-.1.12-.1.11-.11.11-.11.12-.11.11-.11.1-.11.11-.11.11-.12.11-.12.1-.12.1-.12.1-.12.1-.13.1-.13.1-.13.09-.13.1-.14.09-.13.09-.14v0l.09-.12.1-.14.09-.15.1-.14.09-.15.09-.15.09-.15.09-.16.09-.16.09-.16.08-.17.09-.17.08-.17.08-.18.08-.17.08-.19.08-.18.08-.19.07-.19.08-.2.07-.2.07-.2.07-.21.07-.21.07-.21.06-.22.06-.22.07-.23.06-.23.06-.23.05-.23.06-.24,0-.25.05-.25,0-.25.05-.25,0-.26,0-.27,0-.23,0-.24,0-.23,0-.24,0-.22,0-.23,0-.23,0-.23,0-.22,0-.23v-2.61l0-.21,0-.21v-.06l.32-.19.42-.29.39-.29.34-.3.3-.3.26-.31.21-.3.17-.31.47-.77.77.47Z" transform="translate(-171.2 -66.68)" style="fill:#f992ff;fill-rule:evenodd"/><path d="M568.65,83.14l-.4.81-.12.07-.25.15-.37.22-.37.22-.37.23-.13.08-.24.15-.36.22-.37.23-.36.24L565,86l-.07,0-.31.13-.38.17-.39.18-.38.17-.38.18-.39.18-.38.18-.38.18-.38.19-.37.18-.38.19-.38.19-.37.19-.37.2-.37.19-.37.2-.37.2-.21.12-.16.08-.37.2-.36.21-.36.2-.36.21-.36.21-.36.21-.36.21-.35.22-.35.22-.36.21-.34.23-.35.22-.34.23-.35.22-.33.23-.34.23-.34.24-.33.23-.33.24-.33.24-.33.24-.32.25-.32.24-.32.25h0l-.31.24-.32.25-.31.25-.31.25-.31.26-.3.26-.3.25-.3.27-.3.26-.29.27-.29.27-.29.26-.28.28-.28.27-.28.28-.27.28-.27.28-.27.28-.26.29-.26.28-.26.3-.25.29-.25.29-.25.3-.24.3-.2.24,0,0-.24.3-.25.3-.23.3-.23.31-.23.31-.23.3L541,104l-.21.32-.22.32-.21.31-.2.33-.21.32-.2.32-.19.33-.19.33-.19.34-.18.34-.18.33-.18.34-.16.35,0,0-.17.3-.2.33-.18.34-.18.35-.07.14-.12.2-.19.34-.19.35L537,111l-.18.36-.07.14-.11.22-.19.36-.18.36-.18.37-.17.37-.17.38-.16.39-.16.38-.15.4-.15.4-.09.26-.06.14-.14.4-.14.41-.14.42-.13.42-.12.43-.11.43-.12.43-.1.44-.09.45-.09.45-.08.46-.8.75-.69-.84,0-.48,0-.48v-2.85l0-.47,0-.46,0-.47v-.16l0-.3,0-.46,0-.46.05-.46.06-.46.06-.45.07-.45.08-.46.07-.44.09-.45.05-.28,0-.17.11-.44.12-.44.12-.43.12-.44.08-.25.06-.18.16-.41.16-.42.16-.42.16-.37,0,0,.2-.4.2-.39.21-.39.22-.39.22-.38.22-.38.23-.38.23-.37.24-.37.24-.37.25-.36.24-.36.26-.36.25-.35.26-.35.27-.35.26-.34.28-.34.27-.34.28-.33.06-.07.23-.26.29-.32.3-.32.3-.32.3-.31.3-.31.31-.31.31-.3.32-.3.32-.29.31-.3.33-.29.32-.29.33-.28.33-.28L544,94l.33-.28.34-.27.34-.27.35-.26.34-.27.35-.26.35-.26.36-.25.35-.26.35-.24h0l.36-.25.36-.24.37-.24.37-.23.37-.23.37-.23.37-.23.38-.23.37-.22.38-.22.38-.21.39-.22.38-.21.38-.21.39-.21.39-.2.39-.2.38-.2.4-.2L555,87l.39-.19.4-.19.39-.19.4-.18.18-.08.22-.1.4-.18.4-.18.41-.17.4-.17.41-.17.4-.17.4-.16.41-.16.41-.16.41-.16.4-.16.41-.15.41-.16.41-.15.41-.15.41-.14.32-.11.1,0,.44-.07.44-.07.43-.07.43-.07.28,0,.16,0,.44-.06.43-.07.43-.06.29,0,.14,0Z" transform="translate(-171.2 -66.68)" style="fill:#f992ff;fill-rule:evenodd"/><path d="M746.89,164.18v.41l0,.44v.43l0,.43,0,.28-.07.12-.19.29-.19.3-.19.3-.2.29-.19.3-.2.29-.19.29-.2.28-.21.29-.2.28-.2.28-.19.25,0,0-.22.27-.21.27-.22.27-.22.27-.22.26-.23.27-.23.26-.22.26-.23.25-.23.26-.23.25-.24.25-.23.24-.24.25-.24.24-.24.24-.24.24-.15.15-.09.09-.25.23-.25.23-.25.22-.26.23-.25.22-.26.22-.26.22-.26.21-.26.22-.26.21-.26.21-.27.2-.27.2-.26.2-.28.2-.27.2L736,178l-.28.19-.27.19,0,0-.24.15-.29.18-.28.18-.29.17-.28.17-.29.17-.29.17-.29.16-.3.16-.29.16-.29.15-.3.16-.3.15-.3.15-.3.14-.3.14-.3.14-.06,0-.25.1-.31.12-.31.12-.32.12-.31.12-.32.11-.31.11-.32.1-.32.11-.32.1-.32.1-.32.09-.28.08h0l-.33.08-.33.08-.32.07-.33.08-.33.06-.33.07L724,183l-.34.07-.33.05-.33.06-.34.05-.33.05-.19,0-.15,0-.34,0-.34,0-.34,0-.34,0-.34,0-.34,0-.34,0h-3.8l-.35,0h-.14l-.21,0-.36,0-.35-.06-.35-.06-.35-.06-.35-.06-.35-.06-.35-.07-.36-.06-.35-.07-.35-.07-.35-.07-.48-.51.55-.44h.35l.35,0,.35,0,.35,0,.34,0,.34,0,.35,0,.33,0,.34-.05.33-.06.34-.07.19,0h.14l.32,0,.33,0,.33,0,.32-.05.32,0,.32-.05.32-.06.32,0,.31-.06.32-.06.31-.07.31-.07.31-.07.3-.07.31-.08.3-.08.31-.08.29-.09.3-.08.13,0,.17-.05.3-.09.29-.08.29-.1.29-.09.3-.1.28-.1.29-.1.28-.1.29-.11.28-.11.28-.11.28-.12h0l.25-.09.27-.12.28-.11.28-.11.27-.12.27-.12.28-.13.26-.12.27-.13.27-.13.26-.13.27-.13.21-.12,0,0,.27-.13.26-.13.26-.13.27-.14.26-.14.26-.14.25-.14.26-.15L731,176l.25-.15.26-.15.25-.16.25-.15.25-.16.25-.17.24-.16.22-.14,0,0,.25-.17.25-.17.24-.16.25-.17.24-.18.24-.18.24-.17.24-.18.24-.19.23-.18.24-.19.24-.19.23-.19.23-.19.23-.2.23-.2.23-.2.23-.2.22-.2.09-.08.14-.13.23-.21.22-.2.23-.21.22-.22.22-.21.22-.22.22-.22.22-.22.22-.22.22-.23.21-.23.22-.23.21-.23.21-.23.21-.24.21-.24.2-.24,0,0,.19-.21.21-.24.21-.25.21-.24.21-.25.2-.24.21-.26.2-.25.2-.25.21-.26.2-.26.19-.26.08-.11.25-.07.41-.13.34-.13h0l.41-.14.33-.15,0,0,.89-.19Z" transform="translate(-171.2 -66.68)" style="fill:#f992ff;fill-rule:evenodd"/><path d="M739,157.18h0l0,.33,0,.33,0,.14,0,.19-.08.32-.08.33-.09.32-.09.32-.1.32-.1.32-.11.32,0,0-.1.26-.13.31-.13.31-.14.3-.14.31-.15.3-.15.3-.16.29-.15.3h0l-.19.27-.2.27-.2.27-.1.14-.1.12-.22.25-.21.25-.22.24-.1.11-.12.13-.23.23-.23.23-.23.22-.23.21-1.68.21-.15-1.69.15-.25.15-.25.14-.25.13-.26.07-.14.06-.12.14-.25.13-.26.12-.26.06-.12.07-.14.13-.26.13-.26.12-.26h0l.15-.25.14-.24.15-.25.13-.26.13-.25.13-.26.13-.26.12-.25.09-.23,0,0,.12-.25.12-.26.11-.26.1-.26.1-.27.1-.26.09-.27,0-.15,0-.11.09-.26.09-.26h0l.77-.14,1.26.25Z" transform="translate(-171.2 -66.68)" style="fill:#f992ff;fill-rule:evenodd"/><text transform="translate(380.43 75.88)" style="font-size:36px;fill:#383838;font-family:mononoki-Regular, mononoki">they/them</text></g><g id="Layer_1" data-name="Layer 1"><path d="M640.44,845.74c0,18.92-85.63,34.26-191.24,34.26S258,864.66,258,845.74s85.62-34.26,191.24-34.26S640.44,826.82,640.44,845.74Z" transform="translate(-171.2 -66.68)" style="fill:#d8d8d8"/><path d="M378.41,330.14c-19.3-6.44-43.34-5.83-53.05,14.72C314.43,368,312.47,396.67,318,421.58q22.78,3.41,45.56,5.1C361.16,409,373.21,396.57,383,383,395.41,365.76,404.93,339,378.41,330.14ZM364,354c-1.68,5.23-7.54,5-9.91,4s-6.17-4.42-2.81-9.11a7.23,7.23,0,0,1,8.61-2.72C363.07,347.46,365,350.91,364,354Z" transform="translate(-171.2 -66.68)" style="fill:#383838"/><path d="M264.92,366.44c-2.54-.62-18.52-3.57-16.63,2,2,5.89,5.43,11.4,8.86,16.57,7.12,10.72,15.7,24,27.27,30.49.08,0,.12.12.19.17a2.23,2.23,0,0,1,.44.36,2.35,2.35,0,0,1,1,0c9.1,1.88,18.22,3.46,27.32,4.89-5.34-25.71-3.81-57.78,9.49-80.7,10.32-17.78,31.2-20.89,50.23-16.12,19.83,5,32,18,25.28,39.2-6.89,21.66-34.83,39.49-30.4,63.78,49.95,3.39,99.87.91,149.6-5.43,2.44-23.52-22.25-35.46-28.91-56.07-6.25-19.33.37-34.52,20.25-40.31,14.84-4.31,39.72-6.24,50.21,8.19,16.42,22.58,21.47,52.16,15.71,79.28,12.56-2.3,25.11-4.82,37.63-7.48a1.87,1.87,0,0,1,.43-.68c5.35-7.54,11.12-14.79,15.91-22.72,5.3-8.8,14.34-24.79-3.23-22.94-1.71.18-2.65-2-1.89-3.29,5.06-8.79,10.3-17.5,14.94-26.53,2.48-4.85,5.69-10.08,6.74-15.48.59-3-5.88-2.22-8.16-2.2-20.68.19-41.07,4-61.6,6a1.9,1.9,0,0,1-1-.06,1.5,1.5,0,0,1-.38-.19A1.22,1.22,0,0,1,574,317a1.75,1.75,0,0,1-.6-.86,157.42,157.42,0,0,0-9.37-16.82s-.1,0-.15,0c-20.85-5-49.27-4-69.52,3.54-17.92,6.63-32.24,18.62-45.66,31.91a2.21,2.21,0,0,1-3.09,0c-29.47-30.7-84-47.23-124.59-32.28a199.85,199.85,0,0,0-11.12,21.74,1.7,1.7,0,0,1-2.05,1.09c-19.89-.15-39.59-1.67-59.39.54,2.86,13.85,13.09,24.66,18.89,37.37A2.2,2.2,0,0,1,264.92,366.44ZM424.09,388c-.14,13.15,15.05,6.15,20.39-1a14.69,14.69,0,0,1-6.44-2.68c-6.74-4.82-12.82-13.63-11.75-22.32a1.85,1.85,0,0,1,0-.66s0-.07,0-.09,0,0,0,0a2.49,2.49,0,0,1,.11-.29,1.65,1.65,0,0,1,1.22-1.17c2.76-2.08,7.05-2.5,10.25-2.9a82.82,82.82,0,0,1,18.75-.4c11.71,1.21,13.34,10.34,7.14,19.4-3.13,4.58-7.62,8.74-12.63,10.47,3,4.33,8.32,8.55,13.74,6.67,3.86-1.35,5.47-5.58,7.09-9,1.22-2.53,5-.32,3.78,2.2-2.5,5.23-5.81,11.57-12.56,11.41a18.9,18.9,0,0,1-15.11-8.07c-7.24,10.6-28.61,16.41-28.42-1.53C419.75,385.17,424.12,385.17,424.09,388Z" transform="translate(-171.2 -66.68)" style="fill:#fff"/><path d="M210.94,418.72c0,.15,0,.3,0,.45h.15C211,419,211,418.87,210.94,418.72Z" transform="translate(-171.2 -66.68)" style="fill:#eb5f5f"/><path d="M570.37,413.48a2.51,2.51,0,0,1,0-.61,97.24,97.24,0,0,0-.18-44.66c-2.82-11.22-7.35-27-16.84-34.64-13.36-10.73-38.55-8.87-52.49-.12-20.18,12.65-6.77,37.25,4.8,51.17C514.73,395.54,523.33,406.2,522,421Q546.22,417.82,570.37,413.48ZM527.63,350.6c.56-3.14,3.88-5.32,7.27-5a7.22,7.22,0,0,1,6.34,6.43c.77,5.72-4.13,7-6.73,6.74S526.68,356,527.63,350.6Z" transform="translate(-171.2 -66.68)" style="fill:#383838"/><path d="M284.49,420c-3.83,7.73-14.36,21.62-7.49,27.1,13.76,11,33.17,16.85,50,21.06,38.13,9.54,77.91,11.15,117.05,9.61,41.93-1.65,83.65-5.81,124.79-14,13-2.59,26.71-4.17,39.18-9,9-3.52,16.1-8.87,15.63-19.66-.42-9.61-3.95-18.05-9.22-25.84-109.05,23.3-219.36,33.66-329.52,10.94A1.69,1.69,0,0,1,284.49,420Z" transform="translate(-171.2 -66.68)" style="fill:#f992ff"/><path d="M324.57,296.77c21.58-6.72,44.14-5.16,65.7,1.85,19.21,6.25,38.79,13.82,53.55,28.13,5.47,5.32,9.36-2.54,13.95-6.45,3.36-2.88,6.77-5.74,10.38-8.3,7.73-5.46,16-10.37,25.07-13.34,20.52-6.74,45.88-8.63,67.42-4.41a201.87,201.87,0,0,0-39.72-42.45c-22.87-18.36-49.64-33.11-79.85-31.44C392.13,223.08,350.49,256,324.57,296.77Z" transform="translate(-171.2 -66.68)" style="fill:#383838"/><path d="M522.32,239.4a81.27,81.27,0,0,1,22.79-4.22,2.18,2.18,0,0,1,2.11,1.6c1.45,8.18-.36,19.68-5.41,26.87,3.34,3.44,6.56,7,9.62,10.64,7.3-17.73,12.87-38.37,6.21-56.91-18.19,3.77-35.69,10.75-53.39,16.4,4,2.37,8,4.94,11.8,7.67A41,41,0,0,1,522.32,239.4Z" transform="translate(-171.2 -66.68)" style="fill:#383838"/><path d="M526.4,242.71c-2,.6-4,1.25-6,2a187.25,187.25,0,0,1,18.29,15.86c3.6-5.53,5.12-14.43,4.47-20.87A71.64,71.64,0,0,0,526.4,242.71Z" transform="translate(-171.2 -66.68)" style="fill:#fff"/><path d="M343.86,264.75c-5.69-7.06-7.74-19.36-6.22-28a2.18,2.18,0,0,1,2.11-1.6,78,78,0,0,1,22.78,4.22c1.7.56,5,1.18,7.06,2.49q5.81-4.2,11.92-7.83c-18-5.69-35.8-12.85-54.28-16.68-6.88,19.14-.73,40.52,6.9,58.61C337.23,272.14,340.47,268.37,343.86,264.75Z" transform="translate(-171.2 -66.68)" style="fill:#383838"/><path d="M365,244.86c-2.15-.78-4.33-1.52-6.53-2.15a77.18,77.18,0,0,0-16.82-3c-.69,6.87,1.1,16.53,5.24,21.91A178.89,178.89,0,0,1,365.41,245Z" transform="translate(-171.2 -66.68)" style="fill:#fff"/><path d="M460.88,372.29c2.24-4.09,4.34-10-2.14-11.16a55,55,0,0,0-11.33-.68c-4.2.14-13.11-.39-16.89,2.51-.7,6.36,4.6,14.43,9.73,17.56C448.61,385.64,456.68,380,460.88,372.29Z" transform="translate(-171.2 -66.68)" style="fill:#383838"/><path d="M712.69,559.94c-3.38,4.87-6.71,9.8-10,14.73,10.79,5.24,22.18,10.64,30.94,19,7.76,7.39,12.09,16.43,17.49,25.46a196.84,196.84,0,0,0,15.1-17.35C754.56,581.74,735.22,565.92,712.69,559.94Z" transform="translate(-171.2 -66.68)" style="fill:#383838"/><path d="M736.54,528.6c-7.58,8.78-14.52,18-21.18,27.51,22.39,6.41,41.69,22.14,53.71,41.95a184.27,184.27,0,0,0,20.86-36.5C776,545.48,756.92,534.32,736.54,528.6Z" transform="translate(-171.2 -66.68)" style="fill:#fff"/><path d="M728.22,594.73c-8.57-6.74-18.21-11.63-28-16.4a270.62,270.62,0,0,1-16.81,23.44c17.14,9.38,30.1,25.7,34.41,44.83a205.69,205.69,0,0,0,30.07-24.32C742,612.47,737.51,602,728.22,594.73Z" transform="translate(-171.2 -66.68)" style="fill:#fff"/><path d="M779.66,500.64c-9.76-.24-18.67,4.6-26.46,11,17.6,4.15,33.15,12.16,44.39,26.38C801.11,520.92,800.36,501.16,779.66,500.64Z" transform="translate(-171.2 -66.68)" style="fill:#fff"/><path d="M749.42,515.21c-.08,0-.12-.06-.19-.08-3.45,3.2-6.66,6.6-9.57,9.86,19.76,5.9,38.31,16.76,52.13,32.16.19-.46.4-.92.58-1.39a117.66,117.66,0,0,0,4-12.3C785.08,527.34,768.25,519.2,749.42,515.21Z" transform="translate(-171.2 -66.68)" style="fill:#383838"/><path d="M680.58,605.15a106.14,106.14,0,0,1-8.27,8.3c-1.48,1.32-3,2.58-4.53,3.86,8,3.8,14.33,10,19.84,17,5.79,7.4,7.5,15.29,11.33,23.43,5.11-2.66,10.15-5.47,15.06-8.58C710.2,630.18,697.55,614.21,680.58,605.15Z" transform="translate(-171.2 -66.68)" style="fill:#383838"/><path d="M627.9,644.56a68.15,68.15,0,0,1,10.55,15.86c2.56,5.55,2.64,11.65,4.93,17.16,5.23-1.11,10.4-2.43,15.51-3.9-2.65-13.46-8.45-26.92-18.5-36.47C636.3,639.78,632.12,642.21,627.9,644.56Z" transform="translate(-171.2 -66.68)" style="fill:#383838"/><path d="M624,646.72q-8.53,4.6-17.33,8.68a3,3,0,0,1-.61.15A152.08,152.08,0,0,1,588.29,683a258.14,258.14,0,0,0,50.89-4.55c-1.27-4-1.31-8.4-3-12.31A69.56,69.56,0,0,0,624,646.72Z" transform="translate(-171.2 -66.68)" style="fill:#fff"/><path d="M664.08,620.41a241.33,241.33,0,0,1-20,14.38c10.16,10,16.24,23.87,19,37.71a214.1,214.1,0,0,0,32-12.73c-3.19-7-4.73-14.31-9.4-20.72C680.05,631.28,673.2,624,664.08,620.41Z" transform="translate(-171.2 -66.68)" style="fill:#fff"/><path d="M531.18,820.47A2.2,2.2,0,0,1,529,818.3c-1.24-36.24-6.44-72.12-6.57-108.42,0-2.81,4.35-2.81,4.36,0,0,3.17.11,6.32.19,9.48,92.57-29.41,107.29-145,94.66-228.13l-7.83,1.07c-2.75.37-3.94-3.83-1.16-4.21,19.41-2.64,39.14-5.23,57.82-11.32,13.82-4.51,32-12.14,39.27-25.91a2.46,2.46,0,0,1,.53-1A27.34,27.34,0,0,0,713,438.51c.48-20.86-27.1-15.4-40-11.64-19.59,5.71-36.37,17.2-53.93,27.23-10.61,7.69-26.16,9.65-38.36,11.9-45.35,8.38-90.47,14.56-136.68,16.17-44.61,1.54-91.75.3-134.34-14.56-9.42-3.28-18.91-7-27.59-11.93-4.23-2.42-9.14-5.1-11.48-9.59-15-8.23-29.21-17.08-46.29-20.74-8.14-1.74-19.84-4.17-27.62.27-8.88,5.06-7.56,17.63-2.69,25.3,11.06,17.44,35.32,24.41,54.17,29.21,14.33,3.64,28.87,6.25,43.46,8.45a2.33,2.33,0,0,1,1.79.25q6.3.94,12.61,1.81c2.78.37,1.59,4.58-1.16,4.21-3.67-.5-7.37-1-11.06-1.54C288,538.4,285.45,587.15,299.27,631c12.4,39.36,37.86,69.76,75.58,86.55.06-2.56.15-5.11.16-7.67,0-2.81,4.37-2.81,4.36,0-.14,36.3-5.33,72.18-6.57,108.42a2.19,2.19,0,0,1-2.19,2.17c-17.89-1.15-56.44,1.33-62.63,22.76,2.69.14,5.38.27,8.08.33,3.07-7.93,9.76-14.06,18.34-15.37,2.74-.42,3.93,3.78,1.15,4.21a19.48,19.48,0,0,0-14.82,11.18c3.59,0,7.19,0,10.78-.07.24-.39.5-.78.77-1.16a22.44,22.44,0,0,1,2.73-3.19,25,25,0,0,1,10.66-5.88c2.71-.76,3.86,3.45,1.16,4.21a19.75,19.75,0,0,0-9.8,5.86l0,0c18.83-.59,37.63-2,56.48-1.68-1.12-42.81,2.13-85.73.77-128.52-.09-2.82,4.28-2.81,4.37,0,.13,4.15.18,8.31.23,12.46,34.34,8.31,69.64,6.87,104.08-.15.05-4.1.1-8.21.24-12.31.08-2.81,4.45-2.82,4.36,0-.14,4.38-.2,8.75-.25,13.12a2.19,2.19,0,0,1,0,2.24c-.33,37.71,2.05,75.47,1.06,113.16,18.83-.31,37.61,1.08,56.41,1.68a2.72,2.72,0,0,0-.29-.38,20.34,20.34,0,0,0-9.46-5.5c-2.7-.76-1.55-5,1.16-4.21a24.16,24.16,0,0,1,11,6.26,23.82,23.82,0,0,1,2.56,3.1c.08.13.37.54.6.87,3.58.07,7.16.1,10.74.07a19.48,19.48,0,0,0-14.82-11.18c-2.78-.43-1.6-4.63,1.15-4.21,8.58,1.31,15.27,7.44,18.34,15.37,2.7-.06,5.39-.19,8.08-.33C587.63,821.8,549.09,819.32,531.18,820.47Z" transform="translate(-171.2 -66.68)" style="fill:#383838"/><path d="M359.89,346.19a7.23,7.23,0,0,0-8.61,2.72c-3.36,4.69.37,8.14,2.81,9.11s8.23,1.18,9.91-4C365,350.91,363.07,347.46,359.89,346.19Z" transform="translate(-171.2 -66.68)" style="fill:#eb5f5f"/><path d="M534.51,358.82c2.6.28,7.5-1,6.73-6.74a7.22,7.22,0,0,0-6.34-6.43c-3.39-.37-6.71,1.81-7.27,5C526.68,356,532,358.55,534.51,358.82Z" transform="translate(-171.2 -66.68)" style="fill:#eb5f5f"/><path d="M448.14,389.51a18.9,18.9,0,0,0,15.11,8.07c6.75.16,10.06-6.18,12.56-11.41,1.2-2.52-2.56-4.73-3.78-2.2-1.62,3.42-3.23,7.65-7.09,9-5.42,1.88-10.71-2.34-13.74-6.67,5-1.73,9.5-5.89,12.63-10.47,6.2-9.06,4.57-18.19-7.14-19.4a82.82,82.82,0,0,0-18.75.4c-3.2.4-7.49.82-10.25,2.9a1.65,1.65,0,0,0-1.22,1.17,2.49,2.49,0,0,0-.11.29s0,0,0,0,0,.06,0,.09a1.85,1.85,0,0,0,0,.66c-1.07,8.69,5,17.5,11.75,22.32a14.69,14.69,0,0,0,6.44,2.68c-5.34,7.16-20.53,14.16-20.39,1,0-2.81-4.34-2.81-4.37,0C419.53,405.92,440.9,400.11,448.14,389.51Zm-7.89-9c-5.13-3.13-10.43-11.2-9.73-17.56,3.78-2.9,12.69-2.37,16.89-2.51a55,55,0,0,1,11.33.68c6.48,1.16,4.38,7.07,2.14,11.16C456.68,380,448.61,385.64,440.25,380.52Z" transform="translate(-171.2 -66.68)" style="fill:#eb5f5f"/><path d="M359.89,346.19a7.23,7.23,0,0,0-8.61,2.72c-3.36,4.69.37,8.14,2.81,9.11s8.23,1.18,9.91-4C365,350.91,363.07,347.46,359.89,346.19Z" transform="translate(-171.2 -66.68)" style="fill:#fff"/><path d="M534.51,358.82c2.6.28,7.5-1,6.73-6.74a7.22,7.22,0,0,0-6.34-6.43c-3.39-.37-6.71,1.81-7.27,5C526.68,356,532,358.55,534.51,358.82Z" transform="translate(-171.2 -66.68)" style="fill:#fff"/><path d="M448.14,389.51a18.9,18.9,0,0,0,15.11,8.07c6.75.16,10.06-6.18,12.56-11.41,1.2-2.52-2.56-4.73-3.78-2.2-1.62,3.42-3.23,7.65-7.09,9-5.42,1.88-10.71-2.34-13.74-6.67,5-1.73,9.5-5.89,12.63-10.47,6.2-9.06,4.57-18.19-7.14-19.4a82.82,82.82,0,0,0-18.75.4c-3.2.4-7.49.82-10.25,2.9a1.65,1.65,0,0,0-1.22,1.17,2.49,2.49,0,0,0-.11.29s0,0,0,0,0,.06,0,.09a1.85,1.85,0,0,0,0,.66c-1.07,8.69,5,17.5,11.75,22.32a14.69,14.69,0,0,0,6.44,2.68c-5.34,7.16-20.53,14.16-20.39,1,0-2.81-4.34-2.81-4.37,0C419.53,405.92,440.9,400.11,448.14,389.51Zm-7.89-9c-5.13-3.13-10.43-11.2-9.73-17.56,3.78-2.9,12.69-2.37,16.89-2.51a55,55,0,0,1,11.33.68c6.48,1.16,4.38,7.07,2.14,11.16C456.68,380,448.61,385.64,440.25,380.52Z" transform="translate(-171.2 -66.68)" style="fill:#383838"/><path d="M803,515.64c-2.88-13.92-17.12-21-30.26-18.84-15.38,2.52-28.39,16.45-38.23,27.43-25.64,28.59-41.16,65.57-70.53,90.71-16.4,14-35.5,25.17-54.94,34.51,22.13-48,24.4-108.84,16.88-158.83,20-2.79,40.26-6.27,58.66-14.44,10.4-4.62,22.25-12.23,28.53-22.53a26.27,26.27,0,0,0,13.45-1.36c1.35-.53,2.37-2.51,1-3.65-3-2.47-6-5.1-9-7.57a66.14,66.14,0,0,0,13-8.25,2.18,2.18,0,0,0-.44-3.43,19.7,19.7,0,0,0-3.34-1.15,1.72,1.72,0,0,0-1.33-.31,36.13,36.13,0,0,0-11.37,0q-.3-.51-.63-1a3,3,0,0,0,.35-.36c2.94-3.81,7.44-6.73,8.23-11.8.2-1.29-.56-2.89-2.11-2.76-7.3.56-13,4.18-19.28,7.58-.06,0-.09.08-.16.12-.67-.12-1.35-.21-2.05-.28-.8-3.79-1.08-7.94-3.45-11.16a2.21,2.21,0,0,0-4,.52c-1.36,3.57-2.66,7.16-4,10.74-2.1.21-4.15.49-6,.81-20.21,3.42-37.54,13.84-54.89,24.12,4.36-11.41-2-26.81-8.33-36.64a2.31,2.31,0,0,0-.6-3c9.1-12.43,37.25-50.05,11.53-50.47,7.21-11.48,27.25-43,17.28-46.28-10.25-3.33-23.58-.47-34,.58-12.1,1.21-24.13,3-36.23,4.26a186.28,186.28,0,0,0-22.14-34.83c8.3-19.68,15.08-43.12,6.6-63.82a2.27,2.27,0,0,0-2.69-1.53c-20.29,3.94-39.7,12.1-59.44,18.11-17.21-9.22-35.77-14.83-54.68-14.92-20.44-.1-39.9,5.61-57.62,15.2-20-6-39.72-14.4-60.31-18.39a2.27,2.27,0,0,0-2.68,1.53c-8.54,20.84-1.61,44.48,6.77,64.24a1.79,1.79,0,0,0,.91,1,203.3,203.3,0,0,0-24.74,41.48c-20.36-.2-40.52-1.78-60.81.84a2.24,2.24,0,0,0-2.1,2.76c1.88,13.91,11.27,24.66,17.73,36.7-5.29-1-10.92-1.26-15.66,1.18-4.54,2.35-1.26,8.71.14,11.86,6.76,15.12,19.93,34.92,34.63,44-2.77,5.91-10,15.07-10.87,22.35-16.84-9.23-32.72-18.09-52.31-20.92-.53-.09-1.08-.14-1.62-.2a31.47,31.47,0,0,0-3.52-8.24,2.22,2.22,0,0,0-3.77,0c-1.67,2.22-1.88,5.27-1.92,8.05a38.21,38.21,0,0,0-4.44.58,1.66,1.66,0,0,0-.38-.31c-6.28-3.4-12-7-19.29-7.58-1.54-.13-2.3,1.47-2.1,2.76.79,5.07,5.28,8,8.22,11.8a4.57,4.57,0,0,0,.44.44c-.22.29-.4.62-.6.93a36.3,36.3,0,0,0-11.49,0,1.74,1.74,0,0,0-1.33.31,19.59,19.59,0,0,0-3.33,1.15,2.19,2.19,0,0,0-.45,3.43,66.58,66.58,0,0,0,13,8.25c-3,2.47-6,5.1-9,7.57-1.41,1.14-.39,3.12,1,3.65A26.4,26.4,0,0,0,191,453.55c8,13.11,24,20.27,38.51,25.47,19.32,7,39.74,10.68,60.11,13.66-6.32,48.46-7.84,99.17,7.61,146.11,12.58,38.19,40.79,67.82,77.57,83.5-1,31.32-5,62.4-6.22,93.72-21.21-1-61.61,3.14-65.46,28.71a2.24,2.24,0,0,0,2.1,2.77c30.22,1.9,60.32-2.15,90.53-1.42a2.19,2.19,0,0,0,2.18-2.18c-1.12-37.89,1.3-75.85,1-113.74,34.29,8.07,69.55,6.69,103.93-.19-.27,38,2.18,76,1.05,113.93a2.18,2.18,0,0,0,2.18,2.18c30.21-.73,60.31,3.32,90.53,1.42a2.25,2.25,0,0,0,2.1-2.77c-3.85-25.57-44.25-29.67-65.46-28.71-1.19-30.78-5.08-61.32-6.17-92.08a125.54,125.54,0,0,0,57.61-36.71,1.72,1.72,0,0,0,.52.11c28.94.54,57.41-2.32,84.93-11.65,26.65-9,50.94-24.39,72.31-42.5a189.46,189.46,0,0,0,48-62.45C798.55,554.09,806.91,534.44,803,515.64ZM557.64,217.38c6.66,18.54,1.09,39.18-6.21,56.91-3.06-3.65-6.28-7.2-9.62-10.64,5.05-7.19,6.86-18.69,5.41-26.87a2.18,2.18,0,0,0-2.11-1.6,81.27,81.27,0,0,0-22.79,4.22,41,41,0,0,0-6.27,2c-3.84-2.73-7.78-5.3-11.8-7.67C522,228.13,539.45,221.15,557.64,217.38Zm-18.91,43.15a187.25,187.25,0,0,0-18.29-15.86c2-.71,4-1.36,6-2a71.64,71.64,0,0,1,16.8-3.05C543.85,246.1,542.33,255,538.73,260.53Zm-211.5-43.15c18.48,3.83,36.27,11,54.28,16.68q-6.11,3.63-11.92,7.83c-2.09-1.31-5.36-1.93-7.06-2.49a78,78,0,0,0-22.78-4.22,2.18,2.18,0,0,0-2.11,1.6c-1.52,8.61.53,20.91,6.22,28-3.39,3.62-6.63,7.39-9.73,11.24C326.5,257.9,320.35,236.52,327.23,217.38ZM365.41,245a178.89,178.89,0,0,0-18.52,16.55c-4.14-5.38-5.93-15-5.24-21.91a77.18,77.18,0,0,1,16.82,3c2.2.63,4.38,1.37,6.53,2.15Zm75.66-24.67c30.21-1.67,57,13.08,79.85,31.44a201.87,201.87,0,0,1,39.72,42.45c-21.54-4.22-46.9-2.33-67.42,4.41-9,3-17.34,7.88-25.07,13.34-3.61,2.56-7,5.42-10.38,8.3-4.59,3.91-8.48,11.77-13.95,6.45-14.76-14.31-34.34-21.88-53.55-28.13-21.56-7-44.12-8.57-65.7-1.85C350.49,256,392.13,223.08,441.07,220.36ZM257.15,385c-3.43-5.17-6.86-10.68-8.86-16.57-1.89-5.56,14.09-2.61,16.63-2a2.2,2.2,0,0,0,2.46-3.2c-5.8-12.71-16-23.52-18.89-37.37,19.8-2.21,39.5-.69,59.39-.54a1.7,1.7,0,0,0,2.05-1.09,199.85,199.85,0,0,1,11.12-21.74c40.55-14.95,95.12,1.58,124.59,32.28a2.21,2.21,0,0,0,3.09,0c13.42-13.29,27.74-25.28,45.66-31.91,20.25-7.5,48.67-8.58,69.52-3.54.05,0,.1,0,.15,0a157.42,157.42,0,0,1,9.37,16.82,1.75,1.75,0,0,0,.6.86,1.22,1.22,0,0,0,.19.12,1.5,1.5,0,0,0,.38.19,1.9,1.9,0,0,0,1,.06c20.53-2,40.92-5.82,61.6-6,2.28,0,8.75-.78,8.16,2.2-1,5.4-4.26,10.63-6.74,15.48-4.64,9-9.88,17.74-14.94,26.53-.76,1.32.18,3.47,1.89,3.29,17.57-1.85,8.53,14.14,3.23,22.94-4.79,7.93-10.56,15.18-15.91,22.72a1.87,1.87,0,0,0-.43.68c-12.52,2.66-25.07,5.18-37.63,7.48,5.76-27.12.71-56.7-15.71-79.28-10.49-14.43-35.37-12.5-50.21-8.19-19.88,5.79-26.5,21-20.25,40.31,6.66,20.61,31.35,32.55,28.91,56.07C467.87,428,418,430.43,368,427c-4.43-24.29,23.51-42.12,30.4-63.78C405.16,342,393,329,373.12,324.06c-19-4.77-39.91-1.66-50.23,16.12-13.3,22.92-14.83,55-9.49,80.7-9.1-1.43-18.22-3-27.32-4.89a2.35,2.35,0,0,0-1,0,2.23,2.23,0,0,0-.44-.36c-.07-.05-.11-.13-.19-.17C272.85,409,264.27,395.72,257.15,385Zm248.52-.38c-11.57-13.92-25-38.52-4.8-51.17,13.94-8.75,39.13-10.61,52.49.12,9.49,7.62,14,23.42,16.84,34.64a97.24,97.24,0,0,1,.18,44.66,2.51,2.51,0,0,0,0,.61Q546.23,417.8,522,421C523.33,406.2,514.73,395.54,505.67,384.62ZM363.58,426.68Q340.81,425,318,421.58c-5.55-24.91-3.59-53.57,7.34-76.72,9.71-20.55,33.75-21.16,53.05-14.72,26.52,8.86,17,35.62,4.55,52.9C373.21,396.57,361.16,409,363.58,426.68ZM284.49,420a1.69,1.69,0,0,0,.43.18c110.16,22.72,220.47,12.36,329.52-10.94,5.27,7.79,8.8,16.23,9.22,25.84.47,10.79-6.62,16.14-15.63,19.66-12.47,4.87-26.13,6.45-39.18,9-41.14,8.18-82.86,12.34-124.79,14-39.14,1.54-78.92-.07-117-9.61-16.84-4.21-36.25-10.07-50-21.06C270.13,441.65,280.66,427.76,284.49,420Zm-73.55-1.31c0,.15.09.3.14.45h-.15C210.94,419,210.93,418.87,210.94,418.72ZM527,719.36c-.08-3.16-.17-6.31-.19-9.48,0-2.81-4.37-2.81-4.36,0,.13,36.3,5.33,72.18,6.57,108.42a2.2,2.2,0,0,0,2.18,2.17c17.91-1.15,56.45,1.33,62.64,22.76-2.69.14-5.38.27-8.08.33-3.07-7.93-9.76-14.06-18.34-15.37-2.75-.42-3.93,3.78-1.15,4.21a19.48,19.48,0,0,1,14.82,11.18c-3.58,0-7.16,0-10.74-.07-.23-.33-.52-.74-.6-.87a23.82,23.82,0,0,0-2.56-3.1,24.16,24.16,0,0,0-11-6.26c-2.71-.76-3.86,3.45-1.16,4.21a20.34,20.34,0,0,1,9.46,5.5,2.72,2.72,0,0,1,.29.38c-18.8-.6-37.58-2-56.41-1.68,1-37.69-1.39-75.45-1.06-113.16a2.19,2.19,0,0,0,0-2.24c0-4.37.11-8.74.25-13.12.09-2.82-4.28-2.81-4.36,0-.14,4.1-.19,8.21-.24,12.31-34.44,7-69.74,8.46-104.08.15-.05-4.15-.1-8.31-.23-12.46-.09-2.81-4.46-2.82-4.37,0,1.36,42.79-1.89,85.71-.77,128.52-18.85-.31-37.65,1.09-56.48,1.68l0,0a19.75,19.75,0,0,1,9.8-5.86c2.7-.76,1.55-5-1.16-4.21A25,25,0,0,0,335,839.16a22.44,22.44,0,0,0-2.73,3.19c-.27.38-.53.77-.77,1.16-3.59.07-7.19.1-10.78.07a19.48,19.48,0,0,1,14.82-11.18c2.78-.43,1.59-4.63-1.15-4.21-8.58,1.31-15.27,7.44-18.34,15.37-2.7-.06-5.39-.19-8.08-.33,6.19-21.43,44.74-23.91,62.63-22.76a2.19,2.19,0,0,0,2.19-2.17c1.24-36.24,6.43-72.12,6.57-108.42,0-2.81-4.35-2.81-4.36,0,0,2.56-.1,5.11-.16,7.67-37.72-16.79-63.18-47.19-75.58-86.55-13.82-43.85-11.28-92.6-5.41-137.69,3.69.52,7.39,1,11.06,1.54,2.75.37,3.94-3.84,1.16-4.21q-6.31-.87-12.61-1.81a2.33,2.33,0,0,0-1.79-.25c-14.59-2.2-29.13-4.81-43.46-8.45-18.85-4.8-43.11-11.77-54.17-29.21-4.87-7.67-6.19-20.24,2.69-25.3,7.78-4.44,19.48-2,27.62-.27,17.08,3.66,31.25,12.51,46.29,20.74,2.34,4.49,7.25,7.17,11.48,9.59,8.68,5,18.17,8.65,27.59,11.93,42.59,14.86,89.73,16.1,134.34,14.56,46.21-1.61,91.33-7.79,136.68-16.17,12.2-2.25,27.75-4.21,38.36-11.9,17.56-10,34.34-21.52,53.93-27.23,12.88-3.76,40.46-9.22,40,11.64a27.34,27.34,0,0,1-2.74,11.39,2.46,2.46,0,0,0-.53,1c-7.3,13.77-25.45,21.4-39.27,25.91-18.68,6.09-38.41,8.68-57.82,11.32-2.78.38-1.59,4.58,1.16,4.21l7.83-1.07C634.27,574.35,619.55,690,527,719.36ZM588.29,683a152.08,152.08,0,0,0,17.79-27.41,3,3,0,0,0,.61-.15q8.77-4.08,17.33-8.68a69.56,69.56,0,0,1,12.2,19.38c1.65,3.91,1.69,8.28,3,12.31A258.14,258.14,0,0,1,588.29,683Zm55.09-5.38c-2.29-5.51-2.37-11.61-4.93-17.16a68.15,68.15,0,0,0-10.55-15.86c4.22-2.35,8.4-4.78,12.49-7.35,10.05,9.55,15.85,23,18.5,36.47C653.78,675.15,648.61,676.47,643.38,677.58Zm19.72-5.08c-2.73-13.84-8.81-27.73-19-37.71a241.33,241.33,0,0,0,20-14.38c9.12,3.56,16,10.87,21.62,18.64,4.67,6.41,6.21,13.75,9.4,20.72A214.1,214.1,0,0,1,663.1,672.5ZM699,657.76c-3.83-8.14-5.54-16-11.33-23.43-5.51-7-11.8-13.22-19.84-17,1.52-1.28,3.05-2.54,4.53-3.86a106.14,106.14,0,0,0,8.27-8.3c17,9.06,29.62,25,33.43,44C709.1,652.29,704.06,655.1,699,657.76Zm18.91-11.16c-4.31-19.13-17.27-35.45-34.41-44.83a270.62,270.62,0,0,0,16.81-23.44c9.75,4.77,19.39,9.66,28,16.4,9.29,7.31,13.76,17.74,19.71,27.55A205.69,205.69,0,0,1,717.86,646.6Zm33.26-27.49c-5.4-9-9.73-18.07-17.49-25.46-8.76-8.34-20.15-13.74-30.94-19,3.29-4.93,6.62-9.86,10-14.73,22.53,6,41.87,21.8,53.53,41.82A196.84,196.84,0,0,1,751.12,619.11Zm18-21.05c-12-19.81-31.32-35.54-53.71-41.95,6.66-9.47,13.6-18.73,21.18-27.51,20.38,5.72,39.48,16.88,53.39,33A184.27,184.27,0,0,1,769.07,598.06Zm23.3-42.3c-.18.47-.39.93-.58,1.39C778,541.75,759.42,530.89,739.66,525c2.91-3.26,6.12-6.66,9.57-9.86.07,0,.11.07.19.08,18.83,4,35.66,12.13,46.91,28.25A117.66,117.66,0,0,1,792.37,555.76ZM797.59,538c-11.24-14.22-26.79-22.23-44.39-26.38,7.79-6.41,16.7-11.25,26.46-11C800.36,501.16,801.11,520.92,797.59,538Z" transform="translate(-171.2 -66.68)" style="fill:#383838"/><path d="M452,701.54c-23.28-.72-50.92-5.82-72-16-45.11-21.1-53.11-76.38-42.19-120,9.45-37.83,34.91-49.47,71.29-55.28,37.1-6.55,78.57-9.46,114.94,0,60.38,15.27,68.66,93,40.74,143.31-14.55,26.19-58.2,44.38-112,48Z" transform="translate(-171.2 -66.68)" style="fill:#fff"/><path d="M543.12,630.69c-5.21-4.57-11-8.4-16.1-13.09l0,0c-2.09-6.32-10.19-12.05-14.26-16.45-13-14-12.82-28.78-5.16-45.79,6.5-14.44,15.43-27.55,21.68-42.2,11.1-26,15.89-54.27,6.35-81.44-6-17.2-19.84-32.58-39.54-28.61-8.1,1.63-14.05,8.22-18,15-2.91,4.94-1,5.55,1.45,11.52a127.68,127.68,0,0,1,7.48,24.7c6.54,33.79-13.49,63.36-28,91.91-10.59,20.84-15.35,44.59-9.83,67.55,5.05,21,20.33,37.51,37.53,49.65a1.77,1.77,0,0,0,1.93.16c.52-.1,1-.24,1.56-.39,4.17,6.18,9,13.31,15.69,16.5,2.53,1.21,4.75-2.56,2.21-3.76-5.85-2.77-10.06-8.91-13.74-14.35a37.83,37.83,0,0,0,7.6-5.14c4.62,3.73,8.69,8.09,13.75,11.25,2.4,1.5,4.59-2.28,2.21-3.76-4.67-2.92-8.53-6.89-12.72-10.41a98,98,0,0,0,8-8.89c2.39.91,4.73,3.18,6.38,4.58,2.76,2.3,5.32,4.84,8.19,7,2.25,1.69,4.41-2.1,2.2-3.78-3.29-2.49-6.18-5.5-9.41-8.08a31.54,31.54,0,0,0-4.65-3.23c1.92-2.53,3.65-4.94,5.17-7.07,2.36-.39,5.87,3.9,7.28,5.32,2.38,2.38,4.52,5.09,7.15,7.22,2.17,1.75,5.28-1.32,3.09-3.09-3.25-2.63-5.87-6-8.88-8.91a20.32,20.32,0,0,0-6-4.34,27,27,0,0,0,3.43-6.9c4.27,3.54,8.82,6.75,13,10.42C542.13,635.62,545.24,632.56,543.12,630.69Zm-32.38,9.18a2.31,2.31,0,0,0-2.08,2.47c-.83.91-1.68,1.83-2.51,2.72-4,4.31-9.56,10.59-15.55,13.23a2.47,2.47,0,0,0-1.17.48c-.42.15-.85.24-1.27.36C466,643.23,451.22,621.2,451,593.26c-.24-28.14,16-51.86,28.12-76,11.25-22.39,16.33-46.54,10.51-71.23a129.42,129.42,0,0,0-6-17.58c-2.86-7.24-1.39-10.61,4.33-16.23,10.35-10.17,25.64-4.93,34.33,4.21,10.67,11.23,13.91,30.27,14.29,45.06.4,15.94-4.28,31.72-9.94,46.45-9.14,23.83-30.44,46.39-29.25,73.07.38,8.23,5.28,15,10.34,21.12,5.22,6.29,18.06,13.7,13.82,22.67-2.6,5.5-6.54,10.47-10.67,15.09Z" transform="translate(-171.2 -66.68)" style="fill:#383838"/><path d="M510.74,639.87a2.31,2.31,0,0,0-2.08,2.47c-.83.91-1.68,1.83-2.51,2.72-4,4.31-9.56,10.59-15.55,13.23a2.47,2.47,0,0,0-1.17.48c-.42.15-.85.24-1.27.36C466,643.23,451.22,621.2,451,593.26c-.24-28.14,16-51.86,28.12-76,11.25-22.39,16.33-46.54,10.51-71.23a129.42,129.42,0,0,0-6-17.58c-2.86-7.24-1.39-10.61,4.33-16.23,10.35-10.17,25.64-4.93,34.33,4.21,10.67,11.23,13.91,30.27,14.29,45.06.4,15.94-4.28,31.72-9.94,46.45-9.14,23.83-30.44,46.39-29.25,73.07.38,8.23,5.28,15,10.34,21.12,5.22,6.29,18.06,13.7,13.82,22.67-2.6,5.5-6.54,10.47-10.67,15.09Z" transform="translate(-171.2 -66.68)" style="fill:#f992ff"/><path d="M273,392c-2-3.18-3.79-5.39-4.62-7s-1.43-2.35-1.43-2.35c-1.53-2.26-2.08-2.07-1.18.55,0,0,.31.87,1.06,2.63s2.24,4.22,4.34,7.52a52.43,52.43,0,0,0,5.63,6.6c1.37,1.31,2.07,1.9,2.07,1.9,2.13,1.78,2.51,1.35.94-.89,0,0-.53-.75-1.69-2.18S275.29,395,273,392Z" transform="translate(-171.2 -66.68)" style="fill:#383838"/><path d="M281.64,392.19c-.68-1.06-1.37-1.74-1.66-2.29a5.78,5.78,0,0,0-.59-.75c-.71-.71-1.28-.59-1.2.48a6.21,6.21,0,0,0,.2,1,8.52,8.52,0,0,0,1.47,2.88A9.32,9.32,0,0,0,283,396.3c.94.45,1.34,0,.93-.91A20.36,20.36,0,0,0,281.64,392.19Z" transform="translate(-171.2 -66.68)" style="fill:#383838"/><path d="M288.41,390.91a2,2,0,0,0-.54-.88,1.08,1.08,0,0,0-1.29,0s-.56.3-.33,1.46a1.57,1.57,0,0,0,1.19,1.19.64.64,0,0,0,.55-.07c.5-.29.29-.9.23-1.27,0,0-.08-.12,0-.24C288,391.36,288.57,390.91,288.41,390.91Z" transform="translate(-171.2 -66.68)" style="fill:#383838"/><path d="M266.3,338.4a45.58,45.58,0,0,0-5-5.72c-1.41-1.23-1.87-.89-1,.77a60.35,60.35,0,0,0,9.24,12c1.4,1.23,1.87.89,1-.77A44.93,44.93,0,0,0,266.3,338.4Z" transform="translate(-171.2 -66.68)" style="fill:#383838"/><path d="M279,342.67a1.73,1.73,0,0,0-.92-.76c-.37-.05-1-.33-1.26.29a1.92,1.92,0,0,0,.33,1.73,2.13,2.13,0,0,0,.86.77l.08,0h.05s0,0,.12-.33c1.32-1.05,1-.65,1-.7h-.11a1,1,0,0,0-.92.92,1.13,1.13,0,0,1,0,.12s-.05,0,.07.11l.19.13c.06,0,0,0,.16.06a.72.72,0,0,0,.5-.07.83.83,0,0,0,.41-.92c-.25-.54-.09-.19-.14-.32v-.05l0-.09A2.32,2.32,0,0,0,279,342.67Z" transform="translate(-171.2 -66.68)" style="fill:#383838"/><path d="M601.53,393.11c-2.64,2.33-4.36,4.3-5.73,5.33s-1.89,1.72-1.89,1.72c-1.8,1.79-1.51,2.29.75,1,0,0,.75-.41,2.23-1.37s3.51-2.73,6.21-5.13c2.42-2.72,4.26-4.66,5.14-6.21s1.38-2.24,1.38-2.24c1.24-2.25.72-2.55-1.06-.75,0,0-.6.6-1.71,1.89S603.84,390.49,601.53,393.11Z" transform="translate(-171.2 -66.68)" style="fill:#383838"/><path d="M593.23,388.34a4.74,4.74,0,0,0-1.67,1.85c-.22.6.22,1,.89.94a4.22,4.22,0,0,0,2-.92,4.81,4.81,0,0,0,1.67-1.85c.22-.61-.21-1-.88-.95A4.37,4.37,0,0,0,593.23,388.34Z" transform="translate(-171.2 -66.68)" style="fill:#383838"/><path d="M602.68,374.28a5.74,5.74,0,0,0-2.14,1.65c-.41.61-.15,1.13.59,1.14a6.16,6.16,0,0,0,2.65-.84,5.61,5.61,0,0,0,2.12-2c.32-.66-.13-1-.88-1A6.36,6.36,0,0,0,602.68,374.28Z" transform="translate(-171.2 -66.68)" style="fill:#383838"/><path d="M612,347.12a30.63,30.63,0,0,0-3,4.68c-.55,1.09-.77,1.65-.77,1.65-.64,1.68-.13,2,1.1.69,0,0,.41-.43,1.15-1.37l3.31-4.24c1.6-1.78,2.6-3.27,3.46-4.06s1.16-1.31,1.16-1.31c1.07-1.39.77-1.89-.81-1,0,0-.54.3-1.55,1A23.32,23.32,0,0,0,612,347.12Z" transform="translate(-171.2 -66.68)" style="fill:#383838"/><path d="M606.57,339.29c-2.33,2-3.36,2.82-3.36,2.82-.7.51-1.1,1.18.41,1.22A8.4,8.4,0,0,0,608,341a13.15,13.15,0,0,0,3.15-3.59c.56-1,.14-1.45-.9-.92A23.92,23.92,0,0,0,606.57,339.29Z" transform="translate(-171.2 -66.68)" style="fill:#383838"/><path d="M592.22,332.77a5.76,5.76,0,0,0-1,0c-.48.1-1,.43-.84,1,.08-.09,0,1,1.83,1.27,1.88-.28,1.75-1.36,1.83-1.27.13-.56-.36-.89-.84-1A5.76,5.76,0,0,0,592.22,332.77Z" transform="translate(-171.2 -66.68)" style="fill:#383838"/><path d="M535.48,309.86a46.72,46.72,0,0,0-7.77-.22c-1.92.19-2.05.76-.18,1.29a49.81,49.81,0,0,0,8,1.17,50.39,50.39,0,0,0,7.95-1.17c1.86-.53,1.73-1.1-.19-1.29A46.59,46.59,0,0,0,535.48,309.86Z" transform="translate(-171.2 -66.68)" style="fill:#383838"/><path d="M557.5,312.54a2,2,0,0,0-1.21-.5,1,1,0,0,0-.92.92,1.64,1.64,0,0,0,.68,1.29,1.91,1.91,0,0,0,1.69.49,1.07,1.07,0,0,0,.71-.71c0-.1,0-.17,0-.17-.24-.69-.9-.31-1.23-.39a1.33,1.33,0,0,1,.26.13c0-.1.19.15.11,0C557.83,312.78,557.81,312.78,557.5,312.54Z" transform="translate(-171.2 -66.68)" style="fill:#383838"/><path d="M385.57,667.33a62.18,62.18,0,0,1-15.64-8.64,37.75,37.75,0,0,1-4.28-3.93c-3.74-4.28-4.33-4.1-1,.85a29.32,29.32,0,0,0,4.14,4.44c3,2.74,8.21,6.27,15.94,9.36a103.25,103.25,0,0,0,17.68,5.09c3.94.77,5.88,1,5.88,1,5.79.77,5.88.19.26-1.27l-5.74-1.48A153.51,153.51,0,0,1,385.57,667.33Z" transform="translate(-171.2 -66.68)" style="fill:#383838"/><path d="M375.7,646.78c-3.62-1.48-6.8-2.67-9.36-4A52.64,52.64,0,0,1,360,639.4a34.6,34.6,0,0,1-3.62-2.22l-1.13-.81c-4.53-3.17-5-2.81-.8,1l1.08,1a29.31,29.31,0,0,0,3.52,2.56,45.86,45.86,0,0,0,6.33,3.74,90.55,90.55,0,0,0,9.51,4.24,124.29,124.29,0,0,0,17,4.81c3.77.83,5.64,1.06,5.64,1.06,5.56.81,5.66.24.27-1.27l-5.5-1.5C388.63,651,383.07,649.37,375.7,646.78Z" transform="translate(-171.2 -66.68)" style="fill:#383838"/><path d="M363.94,626.58c-5.05-1.92-9-2.92-11.27-4.21-2.41-1-3.61-1.56-3.61-1.56-3.61-1.42-3.95-.94-.62,1.14l3.47,2c2.28,1.51,6.18,2.78,11.37,4.75a106.63,106.63,0,0,0,12,2.82l3.95.57c3.88.44,4-.15.25-1.27l-3.82-1C373,629.27,369.2,628,363.94,626.58Z" transform="translate(-171.2 -66.68)" style="fill:#383838"/><path d="M359.56,612.83a63.36,63.36,0,0,0-8.37-3.54c-2.12-.63-2.4-.12-.57,1.16a64,64,0,0,0,8,4.43,61.81,61.81,0,0,0,8.71,3c2.16.5,2.33-.06.43-1.21A65.37,65.37,0,0,0,359.56,612.83Z" transform="translate(-171.2 -66.68)" style="fill:#383838"/><path d="M359.6,596.08a61.47,61.47,0,0,0-8.47-2.32c-2.12-.32-2.3.23-.41,1.23a82.14,82.14,0,0,0,16.64,5.55c2.12.33,2.3-.22.41-1.22A58.74,58.74,0,0,0,359.6,596.08Z" transform="translate(-171.2 -66.68)" style="fill:#383838"/><path d="M360.18,583.4a5.44,5.44,0,0,0-2.42-.79c-.71,0-.95.55-.6,1.15a5.19,5.19,0,0,0,2,1.64,3.48,3.48,0,0,0,2.85.33c.71-.27.61-.85.11-1.29A15.62,15.62,0,0,0,360.18,583.4Z" transform="translate(-171.2 -66.68)" style="fill:#383838"/><path d="M540.31,547.5a38.11,38.11,0,0,0-8.11-3.26,13.56,13.56,0,0,0-2.75-.62c-2.77-.41-2.86.16-.37,1.24,0,0,.86.3,2.55,1a80,80,0,0,1,7.6,3.56,52,52,0,0,1,7,4.55,21.64,21.64,0,0,1,2.14,1.71c2.07,1.7,2.58,1.39.93-.9a11.5,11.5,0,0,0-1.9-2.14A31,31,0,0,0,540.31,547.5Z" transform="translate(-171.2 -66.68)" style="fill:#383838"/><path d="M541.63,560.36a42.15,42.15,0,0,0-6.81-3.6c-1.57-.63-2.35-.88-2.35-.88-2.35-.73-2.55-.18-.54,1.18,0,0,.67.45,2.1,1.27s3.48,2.2,6.36,3.9c2.68,2,4.84,3.26,6.07,4.35s2,1.45,2,1.45c2,1.34,2.46,1,.88-.94,0,0-.51-.63-1.7-1.85A40.68,40.68,0,0,0,541.63,560.36Z" transform="translate(-171.2 -66.68)" style="fill:#383838"/><path d="M544.15,579.27a11.62,11.62,0,0,0-2.76-2.31,8.5,8.5,0,0,0-1.06-.55c-1.11-.43-1.39.09-.77,1a7.94,7.94,0,0,0,.7.86c.51.49,1.19,1.4,2.23,2.47a15.83,15.83,0,0,0,3.42,3.11c1,.59,1.41.16.93-.89A16.75,16.75,0,0,0,544.15,579.27Z" transform="translate(-171.2 -66.68)" style="fill:#383838"/><path d="M548.82,591.7a1.85,1.85,0,0,0-1.26-.32,1,1,0,0,0-.88,1,1.9,1.9,0,0,0,.93,1.26c.41.26.47.16.59.15a.66.66,0,0,1,.26,0c.36.06,1,.31,1.26-.27a.85.85,0,0,0,0-.6A2,2,0,0,0,548.82,591.7Z" transform="translate(-171.2 -66.68)" style="fill:#383838"/><path d="M391.87,533.19a45.94,45.94,0,0,0-7.23,3.33c-1.51.89-2.2,1.38-2.2,1.38-2.09,1.45-1.77,2,.61,1.14,0,0,.79-.27,2.36-.93s4-1.5,7.22-2.81c6.61-2.26,9.73-3.57,9.73-3.57,2.3-1,2.15-1.6-.36-1.24A54.29,54.29,0,0,0,391.87,533.19Z" transform="translate(-171.2 -66.68)" style="fill:#383838"/><path d="M426.32,530.44a12.92,12.92,0,0,0-3.19.58c-.79.36-.8,1,0,1.3a6.74,6.74,0,0,0,3.39.36,5.1,5.1,0,0,0,3.33-1.29c.66-.63.33-1.12-.49-1.19C429.37,530.2,428.36,530.23,426.32,530.44Z" transform="translate(-171.2 -66.68)" style="fill:#383838"/><path d="M443.27,685.24c-3-.11-4.47-.13-4.47-.13-1.14.1-1.39.63-.34,1.25,0,0,1.41,1,4.81,1.12,3.39-.11,4.8-1.12,4.8-1.12,1.06-.62.8-1.15-.34-1.25C447.73,685.11,446.26,685.13,443.27,685.24Z" transform="translate(-171.2 -66.68)" style="fill:#383838"/><path d="M620.82,667.29a12.4,12.4,0,0,0-3-4.25c-1-.84-1.44-.51-1.08.7a46.48,46.48,0,0,0,2.06,4.48,31.24,31.24,0,0,1,1.21,3.33,9,9,0,0,0,.38,1.13c.5,1.11,1.09,1.2,1.29-.09A9.11,9.11,0,0,0,620.82,667.29Z" transform="translate(-171.2 -66.68)" style="fill:#383838"/><path d="M654,638a29,29,0,0,0-4.31-4.41c-1.23-.92-1.71-.59-1,.79a30.41,30.41,0,0,0,3.68,5.13,27.28,27.28,0,0,0,4.68,4.17c1.31.83,1.71.41.92-.91A32.52,32.52,0,0,0,654,638Z" transform="translate(-171.2 -66.68)" style="fill:#383838"/><path d="M663.56,630.35a2.17,2.17,0,0,0-1.4-.73.91.91,0,0,0-.91.92,2.18,2.18,0,0,0,.73,1.4,3.13,3.13,0,0,0,.53.42l.06,0,0,0h0L664,631h0l-.11-.06-.22-.09a1.46,1.46,0,0,0-.43-.09.89.89,0,0,0-.91.91,1.38,1.38,0,0,0,.1.43l.08.21.06.11v0h0L664,631h0l0,0,0,0A3.44,3.44,0,0,0,663.56,630.35Z" transform="translate(-171.2 -66.68)" style="fill:#383838"/><path d="M698.53,602.91c-2.85-1.74-4.24-2.4-4.24-2.4-1.13-.46-1.6-.09-.87,1a12.71,12.71,0,0,0,3.94,3.34,21.91,21.91,0,0,0,4.5,2.21c1.21.33,1.54-.15.7-1.09A18,18,0,0,0,698.53,602.91Z" transform="translate(-171.2 -66.68)" style="fill:#383838"/><path d="M703.44,590.82a10,10,0,0,0-1.3-1.11,2.5,2.5,0,0,0-.57-.31c-.69-.23-1.05.24-1,.86a2.46,2.46,0,0,0,.17.58,4.87,4.87,0,0,0,1.1,1.61,2.83,2.83,0,0,0,2.76.93c.75-.28.58-.88.18-1.28C704.82,592.1,704.14,591.48,703.44,590.82Z" transform="translate(-171.2 -66.68)" style="fill:#383838"/><path d="M733.36,555.7a25.26,25.26,0,0,0-4.58-1.93c-1-.31-1.56-.41-1.56-.41-1.58-.29-1.78.26-.5,1.2,0,0,.43.31,1.35.83s2.3,1.32,4.21,2.29c3.69,2.08,5.39,3.19,5.39,3.19,1.39.7,1.85.33.87-1a14.79,14.79,0,0,0-1.1-1.24A19.12,19.12,0,0,0,733.36,555.7Z" transform="translate(-171.2 -66.68)" style="fill:#383838"/><path d="M735.47,547.15a33.12,33.12,0,0,0-6.1-2.46c-1.54-.37-1.74.18-.5,1.19a30.93,30.93,0,0,0,5.46,3.2,34.91,34.91,0,0,0,5.5,3.2c1.48.57,1.84.12.76-1A29.22,29.22,0,0,0,735.47,547.15Z" transform="translate(-171.2 -66.68)" style="fill:#383838"/><path d="M739.4,537.36a13.32,13.32,0,0,0-3.78-1.51c-1-.16-1.39.31-.69,1.1a13.85,13.85,0,0,0,3.5,2.43,11.38,11.38,0,0,0,4,1.3c1.06.09,1.33-.43.57-1.16A16.65,16.65,0,0,0,739.4,537.36Z" transform="translate(-171.2 -66.68)" style="fill:#383838"/><path d="M777,508.63a16.81,16.81,0,0,0-6.35-.44c-1.55.26-1.49.84-.06,1.29,0,0,1.9.49,5.91,1.34,2,.53,3.5.74,4.42,1.06a13.4,13.4,0,0,0,1.46.33c1.5.21,1.81-.28.53-1.18,0,0-.43-.3-1.37-.81A18.54,18.54,0,0,0,777,508.63Z" transform="translate(-171.2 -66.68)" style="fill:#383838"/><path d="M755.58,547.36a10.18,10.18,0,0,0-1.62-1.42c-.59-.31-1.13-.1-1.13.61a3.48,3.48,0,0,0,1.3,2.51,3,3,0,0,0,2.92.66c.69-.27.58-.86.11-1.29C757.17,548.38,756.45,548,755.58,547.36Z" transform="translate(-171.2 -66.68)" style="fill:#383838"/><path d="M713.46,614a5.71,5.71,0,0,0-3.11-1.76c-.89-.15-1.1.41-.64,1.12a21.92,21.92,0,0,0,2.16,2.23,22.48,22.48,0,0,0,2.24,2.16c.7.45,1.25.25,1.12-.65A5.77,5.77,0,0,0,713.46,614Z" transform="translate(-171.2 -66.68)" style="fill:#383838"/><path d="M673.32,641.21a8.54,8.54,0,0,0-2.18-2.4c-.74-.47-1.28-.24-1.14.61a9.14,9.14,0,0,0,1.53,3.14A8.59,8.59,0,0,0,673.7,645c.75.48,1.29.25,1.15-.61A9.38,9.38,0,0,0,673.32,641.21Z" transform="translate(-171.2 -66.68)" style="fill:#383838"/><path d="M625.09,662.25a4.94,4.94,0,0,0-1.05-1.51c-.45-.35-1-.5-1.29.15a3.73,3.73,0,0,0,2,4.05c.62.19,1-.27,1-.86A5.58,5.58,0,0,0,625.09,662.25Z" transform="translate(-171.2 -66.68)" style="fill:#383838"/><path d="M299.52,452a61.44,61.44,0,0,1-7.34-3.28,28.87,28.87,0,0,1-4.83-2.92,21.12,21.12,0,0,1-3.52-2.73c-3.29-2.87-3.84-2.61-.91.92a16.43,16.43,0,0,0,3.36,3.22,26.42,26.42,0,0,0,4.89,3.35,51.68,51.68,0,0,0,7.57,3.55,90.42,90.42,0,0,0,13.67,3.62c3,.58,4.51.77,4.51.77,4.43.61,4.56,0,.27-1.26L312.81,456C309.84,455.21,305.39,454,299.52,452Z" transform="translate(-171.2 -66.68)" style="fill:#383838"/><path d="M303.17,444.43a65.42,65.42,0,0,1-11-4,18.87,18.87,0,0,1-2.56-1.29l-.8-.49c-3.23-1.88-3.71-1.51-.75,1.05l.76.64a15.3,15.3,0,0,0,2.51,1.64,44.67,44.67,0,0,0,11.21,4.64c5.25,1.42,9.17,2.11,11.74,2.56l3.83.65c3.76.55,3.94,0,.3-1.26,0,0-1.22-.44-3.74-1.11Z" transform="translate(-171.2 -66.68)" style="fill:#383838"/><path d="M301.78,435.68a64.65,64.65,0,0,0-8.77-2.62c-2.2-.41-2.4.13-.45,1.21A64,64,0,0,0,301,437.8a66,66,0,0,0,8.79,2.64c2.2.4,2.38-.15.41-1.23A64.31,64.31,0,0,0,301.78,435.68Z" transform="translate(-171.2 -66.68)" style="fill:#383838"/><path d="M342.32,462.45A122.93,122.93,0,0,0,330,459.94c-3-.37-3.23.18-.37,1.24a115.25,115.25,0,0,0,24.7,5.56c3,.27,3.18-.3.28-1.26A122.43,122.43,0,0,0,342.32,462.45Z" transform="translate(-171.2 -66.68)" style="fill:#383838"/><path d="M335.09,452a20.13,20.13,0,0,0-5-.47c-1.25.13-1.37.7-.25,1.27a20,20,0,0,0,4.84,1.4,20.33,20.33,0,0,0,5,.46c1.26-.13,1.37-.7.26-1.28A19.82,19.82,0,0,0,335.09,452Z" transform="translate(-171.2 -66.68)" style="fill:#383838"/><path d="M370.89,466.18a21.7,21.7,0,0,0-5.24.47c-1.26.36-1.26.94,0,1.3a29.39,29.39,0,0,0,10.47,0c1.27-.36,1.27-.94,0-1.3A21.65,21.65,0,0,0,370.89,466.18Z" transform="translate(-171.2 -66.68)" style="fill:#383838"/><path d="M587.71,450.09a134.11,134.11,0,0,1-16.4,3.92,33.72,33.72,0,0,1-4.08.64l-1.35.15c-5.35.64-5.43,1.22.08,1.29h1.38a27.7,27.7,0,0,0,4.21-.32,92.69,92.69,0,0,0,16.8-3.53c7.38-2.24,12.67-4.19,16.19-5.39l5.22-1.82c5.11-1.82,5-2.4-.35-1.24,0,0-1.81.34-5.4,1.38S595,447.87,587.71,450.09Z" transform="translate(-171.2 -66.68)" style="fill:#383838"/><path d="M592.89,440.79a40.35,40.35,0,0,1-9,2,10.68,10.68,0,0,1-3,.15c-2.94,0-3.22.52-.14,1.28a8.71,8.71,0,0,0,3.19.34,28.8,28.8,0,0,0,9.64-1.64,62.05,62.05,0,0,0,8.84-3.85c1.85-1,2.72-1.51,2.72-1.51,2.6-1.59,2.37-2.13-.55-1.17Z" transform="translate(-171.2 -66.68)" style="fill:#383838"/><path d="M591.83,430.46a33.85,33.85,0,0,0-6.35,1.77c-1.5.67-1.45,1.24.2,1.28a34.58,34.58,0,0,0,6.69-.88,35.26,35.26,0,0,0,6.33-2.22c1.45-.77,1.28-1.33-.36-1.25A33.33,33.33,0,0,0,591.83,430.46Z" transform="translate(-171.2 -66.68)" style="fill:#383838"/><path d="M588.71,424.62a7.88,7.88,0,0,0-3,.55c-.73.38-.75,1,0,1.29a7.41,7.41,0,0,0,6.33-.64c.68-.47.44-1-.36-1.24A7,7,0,0,0,588.71,424.62Z" transform="translate(-171.2 -66.68)" style="fill:#383838"/><path d="M550.58,456.72a6.44,6.44,0,0,0-2.78.47c-.67.36-.67.94,0,1.3a8.43,8.43,0,0,0,5.55,0c.66-.36.66-.94,0-1.3A6.42,6.42,0,0,0,550.58,456.72Z" transform="translate(-171.2 -66.68)" style="fill:#383838"/><path d="M563.3,439.26a1.65,1.65,0,0,0-1.23.47,1.08,1.08,0,0,0,0,1.3,1.86,1.86,0,0,0,2.47,0,1.08,1.08,0,0,0,0-1.3A1.66,1.66,0,0,0,563.3,439.26Z" transform="translate(-171.2 -66.68)" style="fill:#383838"/><path d="M494.08,435.1a92.25,92.25,0,0,0-5.66-9.33c-1.57-2.12-2.06-1.81-1.11.66a125.59,125.59,0,0,0,10.46,19.09c1.57,2.12,2.09,1.85,1.14-.63A91.87,91.87,0,0,0,494.08,435.1Z" transform="translate(-171.2 -66.68)" style="fill:#383838"/><path d="M498.4,429.21a30.44,30.44,0,0,0-3.78-5c-1.11-1.07-1.6-.74-1.08.71a41.31,41.31,0,0,0,6.78,10.48c1.11,1.06,1.59.74,1.08-.72A31.05,31.05,0,0,0,498.4,429.21Z" transform="translate(-171.2 -66.68)" style="fill:#383838"/><path d="M506.38,425.18a11.43,11.43,0,0,0-2.55-2.82c-.81-.53-1.27-.17-1,.78a11.57,11.57,0,0,0,1.75,3.34,11,11,0,0,0,2.54,2.79c.81.55,1.3.23,1.08-.72A11.53,11.53,0,0,0,506.38,425.18Z" transform="translate(-171.2 -66.68)" style="fill:#383838"/><path d="M470.42,628.49c-2.69-5.36-5.11-9.09-6.1-11.86l-1.81-4c-1.89-3.85-2.45-3.71-1.21.45,0,0,.46,1.4,1.39,4.2s3,6.85,5.8,12.32c3.56,5,5.91,8.92,8.24,10.87l3.19,3.11c3.19,2.95,3.54,2.48.92-.9l-2.76-3.36C476,637.29,473.89,633.35,470.42,628.49Z" transform="translate(-171.2 -66.68)" style="fill:#383838"/><path d="M460.64,597.72a8.43,8.43,0,0,0-2-2.92c-.67-.55-1.14-.19-1.09.68a9.12,9.12,0,0,0,1,3,8.55,8.55,0,0,0,1.39,3c.57.66,1.15.54,1.25-.33A9.37,9.37,0,0,0,460.64,597.72Z" transform="translate(-171.2 -66.68)" style="fill:#383838"/><path d="M477.78,629.77c-2.21-3.76-3.69-6.64-4.65-8.56s-1.46-2.84-1.46-2.84c-1.5-2.76-2.06-2.57-1.2.49a25,25,0,0,0,1,3.08,56.67,56.67,0,0,0,4.34,9,36.64,36.64,0,0,0,6.29,7.87,12.71,12.71,0,0,0,2.54,2.08c2.71,1.78,3,1.25.85-1a18.74,18.74,0,0,1-2.12-2.32A57.71,57.71,0,0,1,477.78,629.77Z" transform="translate(-171.2 -66.68)" style="fill:#383838"/><path d="M487.67,628.3c-2.64-4-3.94-5.9-3.94-5.9-1.09-1.36-1.65-1.17-1.17.55a22,22,0,0,0,3.23,6.58,55.33,55.33,0,0,0,4.26,5.77c1.21,1.27,1.72,1,1.11-.66A30.79,30.79,0,0,0,487.67,628.3Z" transform="translate(-171.2 -66.68)" style="fill:#383838"/><path d="M497.4,625.13a15,15,0,0,1-1.82-2.24c-.41-.51-.53-.82-.56-.81-.6-.81-1.2-.81-1.23.38a3.15,3.15,0,0,0,.18,1.16,7,7,0,0,0,1.82,3.08,8.76,8.76,0,0,0,2.9,1.95,3.87,3.87,0,0,0,1.06.35c1.1.19,1.32-.35.62-1.13Z" transform="translate(-171.2 -66.68)" style="fill:#383838"/><path d="M487.34,564.48a48.4,48.4,0,0,0,.11,7.2c.14,1.57.27,2.31.27,2.31.37,2.26.95,2.27,1.29,0,0,0,.11-.76.21-2.32s.2-3.9.36-7a41.06,41.06,0,0,1,1-6.79,10.69,10.69,0,0,1,.57-2.17c.6-2.13.13-2.51-1.19-.52a7.63,7.63,0,0,0-1.07,2.15A23.71,23.71,0,0,0,487.34,564.48Z" transform="translate(-171.2 -66.68)" style="fill:#383838"/><path d="M480.64,560.71a2.83,2.83,0,0,0,.09,1.26c.17.43.46,1,1,.76a2,2,0,0,0,1.1-1.74,2.07,2.07,0,0,0-.4-1.73.86.86,0,0,0-1.29,0A2.92,2.92,0,0,0,480.64,560.71Z" transform="translate(-171.2 -66.68)" style="fill:#383838"/><path d="M497.13,544.17a3.25,3.25,0,0,0-1,1.71.76.76,0,0,0,.92.9,3.6,3.6,0,0,0,1.76-1.16,3.37,3.37,0,0,0,.82-2.06c0-.59-.58-.81-1.14-.62A3.41,3.41,0,0,0,497.13,544.17Z" transform="translate(-171.2 -66.68)" style="fill:#383838"/></g></svg>